<svg xmlns="http://www.w3.org/2000/svg" xmlns:xlink="http://www.w3.org/1999/xlink" viewBox="0 0 645 260" width="645" height="260" preserveAspectRatio="xMidYMid meet" style="width: 100%; height: 100%; transform: translate3d(0px, 0px, 0px); content-visibility: visible;"><defs><clipPath id="__lottie_element_156"><rect width="645" height="260" x="0" y="0"></rect></clipPath></defs><g clip-path="url(#__lottie_element_156)"><g style="display: block;" transform="matrix(-1.5875211954116821,-2.064120292663574,2.064120292663574,-1.5875211954116821,-20.013076782226562,-297.4967346191406)" opacity="1"><g opacity="1" transform="matrix(1.090000033378601,0,0,1.090000033378601,0,0)"><path fill="rgb(112,255,129)" fill-opacity="1" d=" M-209.5,-105.25 C-210.25,-105.375 -210.31300354003906,-103.81199645996094 -210.68800354003906,-103.81199645996094 C-211.06300354003906,-103.81199645996094 -211.68699645996094,-103.18699645996094 -211.375,-102.81199645996094 C-211.06300354003906,-102.43699645996094 -210.25,-102 -209.81199645996094,-102.375 C-209.37399291992188,-102.75 -208.81199645996094,-102.3759994506836 -208.5,-102.93800354003906 C-208.18800354003906,-103.5 -208.75,-103.81300354003906 -208.68800354003906,-104.375 C-208.62600708007812,-104.93699645996094 -208.75,-105.125 -209.5,-105.25z"></path></g></g><g style="display: block;" transform="matrix(2.6040000915527344,0,0,2.6040000915527344,826.651123046875,522.9789428710938)" opacity="1"><g opacity="1" transform="matrix(1.090000033378601,0,0,1.090000033378601,0,0)"><path fill="rgb(112,255,129)" fill-opacity="1" d=" M-209.5919952392578,-104.57599639892578 C-210.3419952392578,-104.70099639892578 -210.81500244140625,-104.45600128173828 -211.0570068359375,-104.16899871826172 C-211.70799255371094,-103.39700317382812 -211.68699645996094,-103.18699645996094 -211.375,-102.81199645996094 C-211.06300354003906,-102.43699645996094 -210.78399658203125,-102.06600189208984 -210.38099670410156,-102.2300033569336 C-209.97799682617188,-102.39399719238281 -209.2220001220703,-102.177001953125 -208.91000366210938,-102.73899841308594 C-208.59800720214844,-103.3010025024414 -208.89500427246094,-103.36399841308594 -208.83299255371094,-103.9260025024414 C-208.8159942626953,-104.24299621582031 -208.8419952392578,-104.45099639892578 -209.5919952392578,-104.57599639892578z"></path></g></g><g style="display: block;" transform="matrix(0.8820000290870667,0,0,0.8820000290870667,-17.99549102783203,100.7701416015625)" opacity="1"><g opacity="1" transform="matrix(1,0,0,1,0,0)"><path fill="rgb(255,255,255)" fill-opacity="1" d=" M102.25,-14.5 C101.25,-15 99.5,-11.75 98.5,-10.5 C97.5,-9.25 96,-3.25 96,0.25 C96,3.75 99.25,3.25 101.5,3.5 C103.75,3.75 104.5,8.5 103.75,11 C103,13.5 107.75,10.75 110,7 C110.9280014038086,5.453999996185303 108.5,3.5 108.75,-3 C108.81999969482422,-4.818999767303467 108.25,-6.25 106,-5.25 C103.75,-4.25 102,-1 102.5,-3.25 C103,-5.5 107,-7 106.25,-9.5 C105.5,-12 103.25,-14 102.25,-14.5z"></path></g></g><g style="display: block;" transform="matrix(-0.5580593943595886,0.22038546204566956,-0.22038546204566956,-0.5580593943595886,199.03509521484375,146.22482299804688)" opacity="1"><g opacity="1" transform="matrix(1,0,0,1,0,0)"><path fill="rgb(255,255,255)" fill-opacity="1" d=" M132,-114 C129.75,-116.25 126,-110.5 124,-107.75 C122,-105 123,-103 120,-95.5 C117,-88 119.25,-86 123,-86.25 C126.75,-86.5 132.25,-92.5 132.5,-96.75 C132.75,-101 134.25,-111.75 132,-114z"></path></g></g><g style="display: block;" transform="matrix(-0.5743969678878784,0.17340171337127686,-0.17340171337127686,-0.5743969678878784,115.08800506591797,201.19581604003906)" opacity="1"><g opacity="1" transform="matrix(1,0,0,1,0,0)"><path fill="rgb(112,255,129)" fill-opacity="1" d=" M39,-66.5 C28.351999282836914,-72.23300170898438 31.5,-64.5 32,-61.5 C32.5,-58.5 32.5,-51.5 35.5,-51.5 C38.5,-51.5 45.5,-51.5 47,-53 C48.5,-54.5 45.5,-63 39,-66.5z"></path></g></g><g style="display: block;" transform="matrix(-0.16413085162639618,-0.3204076588153839,0.3204076588153839,-0.16413085162639618,243.28445434570312,237.85671997070312)" opacity="1"><g opacity="1" transform="matrix(1,0,0,1,0,0)"><path fill="rgb(112,255,129)" fill-opacity="1" d=" M39,-66.5 C28.351999282836914,-72.23300170898438 31.5,-64.5 32,-61.5 C32.5,-58.5 32.5,-51.5 35.5,-51.5 C38.5,-51.5 45.5,-51.5 47,-53 C48.5,-54.5 45.5,-63 39,-66.5z"></path></g></g><g style="display: block;" transform="matrix(0.6000000238418579,0,0,0.6000000238418579,-91.06040954589844,275.8210144042969)" opacity="1"><g opacity="1" transform="matrix(1,0,0,1,226.0279998779297,-88.72200012207031)"><path fill="rgb(112,255,129)" fill-opacity="1" d=" M0,-9.050000190734863 C4.99469518661499,-9.050000190734863 9.050000190734863,-4.99469518661499 9.050000190734863,0 C9.050000190734863,4.99469518661499 4.99469518661499,9.050000190734863 0,9.050000190734863 C-4.99469518661499,9.050000190734863 -9.050000190734863,4.99469518661499 -9.050000190734863,0 C-9.050000190734863,-4.99469518661499 -4.99469518661499,-9.050000190734863 0,-9.050000190734863z"></path></g></g><g style="display: block;" transform="matrix(-0.5122949481010437,0.312336266040802,-0.312336266040802,-0.5122949481010437,-49.88267517089844,241.1014404296875)" opacity="1"><g opacity="1" transform="matrix(1,0,0,1,-209.75,-80.25)"><path fill="rgb(255,255,255)" fill-opacity="1" d=" M4.621204766542977e-16,-7.546999931335449 C4.621204766542977e-16,-7.546999931335449 2.2177138328552246,-3.0524210929870605 2.2177138328552246,-3.0524210929870605 C2.2177138328552246,-3.0524210929870605 7.177623748779297,-2.332151174545288 7.177623748779297,-2.332151174545288 C7.177623748779297,-2.332151174545288 3.588336229324341,1.1659210920333862 3.588336229324341,1.1659210920333862 C3.588336229324341,1.1659210920333862 4.4360151290893555,6.105651378631592 4.4360151290893555,6.105651378631592 C4.4360151290893555,6.105651378631592 2.310296127921497e-16,3.7730000019073486 2.310296127921497e-16,3.7730000019073486 C2.310296127921497e-16,3.7730000019073486 -4.4360151290893555,6.105651378631592 -4.4360151290893555,6.105651378631592 C-4.4360151290893555,6.105651378631592 -3.588336229324341,1.1659210920333862 -3.588336229324341,1.1659210920333862 C-3.588336229324341,1.1659210920333862 -7.177623748779297,-2.332151174545288 -7.177623748779297,-2.332151174545288 C-7.177623748779297,-2.332151174545288 -2.2177138328552246,-3.0524210929870605 -2.2177138328552246,-3.0524210929870605 C-2.2177138328552246,-3.0524210929870605 4.621204766542977e-16,-7.546999931335449 4.621204766542977e-16,-7.546999931335449z"></path></g></g><g style="display: block;" transform="matrix(-0.1145656481385231,0.5889607071876526,-0.5889607071876526,-0.1145656481385231,124.1671371459961,298.77703857421875)" opacity="1"><g opacity="1" transform="matrix(1,0,0,1,-209.75,-80.25)"><path fill="rgb(112,255,129)" fill-opacity="1" d=" M4.621204766542977e-16,-7.546999931335449 C4.621204766542977e-16,-7.546999931335449 2.2177138328552246,-3.0524210929870605 2.2177138328552246,-3.0524210929870605 C2.2177138328552246,-3.0524210929870605 7.177623748779297,-2.332151174545288 7.177623748779297,-2.332151174545288 C7.177623748779297,-2.332151174545288 3.588336229324341,1.1659210920333862 3.588336229324341,1.1659210920333862 C3.588336229324341,1.1659210920333862 4.4360151290893555,6.105651378631592 4.4360151290893555,6.105651378631592 C4.4360151290893555,6.105651378631592 2.310296127921497e-16,3.7730000019073486 2.310296127921497e-16,3.7730000019073486 C2.310296127921497e-16,3.7730000019073486 -4.4360151290893555,6.105651378631592 -4.4360151290893555,6.105651378631592 C-4.4360151290893555,6.105651378631592 -3.588336229324341,1.1659210920333862 -3.588336229324341,1.1659210920333862 C-3.588336229324341,1.1659210920333862 -7.177623748779297,-2.332151174545288 -7.177623748779297,-2.332151174545288 C-7.177623748779297,-2.332151174545288 -2.2177138328552246,-3.0524210929870605 -2.2177138328552246,-3.0524210929870605 C-2.2177138328552246,-3.0524210929870605 4.621204766542977e-16,-7.546999931335449 4.621204766542977e-16,-7.546999931335449z"></path></g></g><g style="display: block;" transform="matrix(-0.5343695282936096,-0.27285391092300415,0.27285391092300415,-0.5343695282936096,-4.1492919921875,95.13583374023438)" opacity="1"><g opacity="1" transform="matrix(1.4800000190734863,0,0,1.4800000190734863,-209.75,-80.25)"><path fill="rgb(255,255,255)" fill-opacity="1" d=" M4.621204766542977e-16,-7.546999931335449 C4.621204766542977e-16,-7.546999931335449 1.8865000009536743,-3.2675137519836426 1.8865000009536743,-3.2675137519836426 C1.8865000009536743,-3.2675137519836426 6.53589391708374,-3.7734999656677246 6.53589391708374,-3.7734999656677246 C6.53589391708374,-3.7734999656677246 3.7730000019073486,-8.377742948056596e-16 3.7730000019073486,-8.377742948056596e-16 C3.7730000019073486,-8.377742948056596e-16 6.53589391708374,3.7734999656677246 6.53589391708374,3.7734999656677246 C6.53589391708374,3.7734999656677246 1.8865000009536743,3.2675137519836426 1.8865000009536743,3.2675137519836426 C1.8865000009536743,3.2675137519836426 3.813661659959975e-15,7.546999931335449 3.813661659959975e-15,7.546999931335449 C3.813661659959975e-15,7.546999931335449 -1.8865000009536743,3.2675137519836426 -1.8865000009536743,3.2675137519836426 C-1.8865000009536743,3.2675137519836426 -6.53589391708374,3.7734999656677246 -6.53589391708374,3.7734999656677246 C-6.53589391708374,3.7734999656677246 -3.7730000019073486,3.813156404806938e-15 -3.7730000019073486,3.813156404806938e-15 C-3.7730000019073486,3.813156404806938e-15 -6.53589391708374,-3.7734999656677246 -6.53589391708374,-3.7734999656677246 C-6.53589391708374,-3.7734999656677246 -1.8865000009536743,-3.2675137519836426 -1.8865000009536743,-3.2675137519836426 C-1.8865000009536743,-3.2675137519836426 4.621204766542977e-16,-7.546999931335449 4.621204766542977e-16,-7.546999931335449z"></path></g></g><g style="display: block;" transform="matrix(-0.10782663524150848,-0.590231716632843,0.590231716632843,-0.10782663524150848,209.82286071777344,98.49569702148438)" opacity="1"><g opacity="1" transform="matrix(1.4800000190734863,0,0,1.4800000190734863,-209.75,-80.25)"><path fill="rgb(112,255,129)" fill-opacity="1" d=" M4.621204766542977e-16,-7.546999931335449 C4.621204766542977e-16,-7.546999931335449 1.8865000009536743,-3.2675137519836426 1.8865000009536743,-3.2675137519836426 C1.8865000009536743,-3.2675137519836426 6.53589391708374,-3.7734999656677246 6.53589391708374,-3.7734999656677246 C6.53589391708374,-3.7734999656677246 3.7730000019073486,-8.377742948056596e-16 3.7730000019073486,-8.377742948056596e-16 C3.7730000019073486,-8.377742948056596e-16 6.53589391708374,3.7734999656677246 6.53589391708374,3.7734999656677246 C6.53589391708374,3.7734999656677246 1.8865000009536743,3.2675137519836426 1.8865000009536743,3.2675137519836426 C1.8865000009536743,3.2675137519836426 3.813661659959975e-15,7.546999931335449 3.813661659959975e-15,7.546999931335449 C3.813661659959975e-15,7.546999931335449 -1.8865000009536743,3.2675137519836426 -1.8865000009536743,3.2675137519836426 C-1.8865000009536743,3.2675137519836426 -6.53589391708374,3.7734999656677246 -6.53589391708374,3.7734999656677246 C-6.53589391708374,3.7734999656677246 -3.7730000019073486,3.813156404806938e-15 -3.7730000019073486,3.813156404806938e-15 C-3.7730000019073486,3.813156404806938e-15 -6.53589391708374,-3.7734999656677246 -6.53589391708374,-3.7734999656677246 C-6.53589391708374,-3.7734999656677246 -1.8865000009536743,-3.2675137519836426 -1.8865000009536743,-3.2675137519836426 C-1.8865000009536743,-3.2675137519836426 4.621204766542977e-16,-7.546999931335449 4.621204766542977e-16,-7.546999931335449z"></path></g></g><g style="display: block;" transform="matrix(-0.9543691277503967,2.422807216644287,-2.422807216644287,-0.9543691277503967,-119.76919555664062,645.7928466796875)" opacity="1"><g opacity="1" transform="matrix(1.090000033378601,0,0,1.090000033378601,0,0)"><path fill="rgb(255,255,255)" fill-opacity="1" d=" M-209.5,-105.25 C-210.25,-105.375 -210.31300354003906,-103.81199645996094 -210.68800354003906,-103.81199645996094 C-211.06300354003906,-103.81199645996094 -211.68699645996094,-103.18699645996094 -211.375,-102.81199645996094 C-211.06300354003906,-102.43699645996094 -210.25,-102 -209.81199645996094,-102.375 C-209.37399291992188,-102.75 -208.81199645996094,-102.3759994506836 -208.5,-102.93800354003906 C-208.18800354003906,-103.5 -208.75,-103.81300354003906 -208.68800354003906,-104.375 C-208.62600708007812,-104.93699645996094 -208.75,-105.125 -209.5,-105.25z"></path></g></g><g style="display: block;" transform="matrix(2.3788723945617676,-1.0591422319412231,1.0591422319412231,2.3788723945617676,650.5670776367188,312.8974609375)" opacity="1"><g opacity="1" transform="matrix(1.090000033378601,0,0,1.090000033378601,0,0)"><path fill="rgb(255,255,255)" fill-opacity="1" d=" M-209.5919952392578,-104.57599639892578 C-210.3419952392578,-104.70099639892578 -210.81500244140625,-104.45600128173828 -211.0570068359375,-104.16899871826172 C-211.70799255371094,-103.39700317382812 -211.68699645996094,-103.18699645996094 -211.375,-102.81199645996094 C-211.06300354003906,-102.43699645996094 -210.78399658203125,-102.06600189208984 -210.38099670410156,-102.2300033569336 C-209.97799682617188,-102.39399719238281 -209.2220001220703,-102.177001953125 -208.91000366210938,-102.73899841308594 C-208.59800720214844,-103.3010025024414 -208.89500427246094,-103.36399841308594 -208.83299255371094,-103.9260025024414 C-208.8159942626953,-104.24299621582031 -208.8419952392578,-104.45099639892578 -209.5919952392578,-104.57599639892578z"></path></g></g><g style="display: block;" transform="matrix(0.6000000238418579,0,0,0.6000000238418579,68.58515167236328,238.17138671875)" opacity="1"><g opacity="1" transform="matrix(1,0,0,1,159.09300231933594,-46.43199920654297)"><path fill="rgb(255,255,255)" fill-opacity="1" d=" M0,-4.550000190734863 C2.5111451148986816,-4.550000190734863 4.550000190734863,-2.5111451148986816 4.550000190734863,0 C4.550000190734863,2.5111451148986816 2.5111451148986816,4.550000190734863 0,4.550000190734863 C-2.5111451148986816,4.550000190734863 -4.550000190734863,2.5111451148986816 -4.550000190734863,0 C-4.550000190734863,-2.5111451148986816 -2.5111451148986816,-4.550000190734863 0,-4.550000190734863z"></path></g></g><g style="display: block;" transform="matrix(0.5999478697776794,0.00790939386934042,-0.00790939386934042,0.5999478697776794,255.44586181640625,238.60073852539062)" opacity="1"><g opacity="1" transform="matrix(1,0,0,1,-209.75,-80.25)"><path fill="rgb(112,255,129)" fill-opacity="1" d=" M4.621204766542977e-16,-7.546999931335449 C4.621204766542977e-16,-7.546999931335449 2.2177138328552246,-3.0524210929870605 2.2177138328552246,-3.0524210929870605 C2.2177138328552246,-3.0524210929870605 7.177623748779297,-2.332151174545288 7.177623748779297,-2.332151174545288 C7.177623748779297,-2.332151174545288 3.588336229324341,1.1659210920333862 3.588336229324341,1.1659210920333862 C3.588336229324341,1.1659210920333862 4.4360151290893555,6.105651378631592 4.4360151290893555,6.105651378631592 C4.4360151290893555,6.105651378631592 2.310296127921497e-16,3.7730000019073486 2.310296127921497e-16,3.7730000019073486 C2.310296127921497e-16,3.7730000019073486 -4.4360151290893555,6.105651378631592 -4.4360151290893555,6.105651378631592 C-4.4360151290893555,6.105651378631592 -3.588336229324341,1.1659210920333862 -3.588336229324341,1.1659210920333862 C-3.588336229324341,1.1659210920333862 -7.177623748779297,-2.332151174545288 -7.177623748779297,-2.332151174545288 C-7.177623748779297,-2.332151174545288 -2.2177138328552246,-3.0524210929870605 -2.2177138328552246,-3.0524210929870605 C-2.2177138328552246,-3.0524210929870605 4.621204766542977e-16,-7.546999931335449 4.621204766542977e-16,-7.546999931335449z"></path></g></g><g style="display: block;" transform="matrix(0.43799999356269836,0,0,0.43799999356269836,-216.1295166015625,226.78048706054688)" opacity="1"><g opacity="1" transform="matrix(1,0,0,1,226.0279998779297,-88.72200012207031)"><path fill="rgb(112,255,129)" fill-opacity="1" d=" M0,-9.050000190734863 C4.99469518661499,-9.050000190734863 9.050000190734863,-4.99469518661499 9.050000190734863,0 C9.050000190734863,4.99469518661499 4.99469518661499,9.050000190734863 0,9.050000190734863 C-4.99469518661499,9.050000190734863 -9.050000190734863,4.99469518661499 -9.050000190734863,0 C-9.050000190734863,-4.99469518661499 -4.99469518661499,-9.050000190734863 0,-9.050000190734863z"></path></g></g><g style="display: block;" transform="matrix(0.5988176465034485,-0.037649404257535934,0.037649404257535934,0.5988176465034485,61.467498779296875,273.3329772949219)" opacity="1"><g opacity="1" transform="matrix(1.4800000190734863,0,0,1.4800000190734863,-209.75,-80.25)"><path fill="rgb(112,255,129)" fill-opacity="1" d=" M4.621204766542977e-16,-7.546999931335449 C4.621204766542977e-16,-7.546999931335449 1.8865000009536743,-3.2675137519836426 1.8865000009536743,-3.2675137519836426 C1.8865000009536743,-3.2675137519836426 6.53589391708374,-3.7734999656677246 6.53589391708374,-3.7734999656677246 C6.53589391708374,-3.7734999656677246 3.7730000019073486,-8.377742948056596e-16 3.7730000019073486,-8.377742948056596e-16 C3.7730000019073486,-8.377742948056596e-16 6.53589391708374,3.7734999656677246 6.53589391708374,3.7734999656677246 C6.53589391708374,3.7734999656677246 1.8865000009536743,3.2675137519836426 1.8865000009536743,3.2675137519836426 C1.8865000009536743,3.2675137519836426 3.813661659959975e-15,7.546999931335449 3.813661659959975e-15,7.546999931335449 C3.813661659959975e-15,7.546999931335449 -1.8865000009536743,3.2675137519836426 -1.8865000009536743,3.2675137519836426 C-1.8865000009536743,3.2675137519836426 -6.53589391708374,3.7734999656677246 -6.53589391708374,3.7734999656677246 C-6.53589391708374,3.7734999656677246 -3.7730000019073486,3.813156404806938e-15 -3.7730000019073486,3.813156404806938e-15 C-3.7730000019073486,3.813156404806938e-15 -6.53589391708374,-3.7734999656677246 -6.53589391708374,-3.7734999656677246 C-6.53589391708374,-3.7734999656677246 -1.8865000009536743,-3.2675137519836426 -1.8865000009536743,-3.2675137519836426 C-1.8865000009536743,-3.2675137519836426 4.621204766542977e-16,-7.546999931335449 4.621204766542977e-16,-7.546999931335449z"></path></g></g><g style="display: block;" transform="matrix(-0.8596069812774658,0.19748391211032867,-0.19748391211032867,-0.8596069812774658,28.185321807861328,211.4351348876953)" opacity="1"><g opacity="1" transform="matrix(1,0,0,1,0,0)"><path fill="rgb(255,255,255)" fill-opacity="1" d=" M102.25,-14.5 C101.25,-15 99.5,-11.75 98.5,-10.5 C97.5,-9.25 96,-3.25 96,0.25 C96,3.75 99.25,3.25 101.5,3.5 C103.75,3.75 104.5,8.5 103.75,11 C103,13.5 107.75,10.75 110,7 C110.9280014038086,5.453999996185303 108.5,3.5 108.75,-3 C108.81999969482422,-4.818999767303467 108.25,-6.25 106,-5.25 C103.75,-4.25 102,-1 102.5,-3.25 C103,-5.5 107,-7 106.25,-9.5 C105.5,-12 103.25,-14 102.25,-14.5z"></path></g></g><g style="display: block;" transform="matrix(-0.3940751850605011,0.45244312286376953,-0.45244312286376953,-0.3940751850605011,287.91400146484375,134.45301818847656)" opacity="1"><g opacity="1" transform="matrix(1,0,0,1,0,0)"><path fill="rgb(255,255,255)" fill-opacity="1" d=" M132,-114 C129.75,-116.25 126,-110.5 124,-107.75 C122,-105 123,-103 120,-95.5 C117,-88 119.25,-86 123,-86.25 C126.75,-86.5 132.25,-92.5 132.5,-96.75 C132.75,-101 134.25,-111.75 132,-114z"></path></g></g><g style="display: block;" transform="matrix(-0.738802969455719,-0.4817615747451782,0.4817615747451782,-0.738802969455719,378.63885498046875,276.831787109375)" opacity="1"><g opacity="1" transform="matrix(1,0,0,1,0,0)"><path fill="rgb(112,255,129)" fill-opacity="1" d=" M102.25,-14.5 C101.25,-15 99.5,-11.75 98.5,-10.5 C97.5,-9.25 96,-3.25 96,0.25 C96,3.75 99.25,3.25 101.5,3.5 C103.75,3.75 104.5,8.5 103.75,11 C103,13.5 107.75,10.75 110,7 C110.9280014038086,5.453999996185303 108.5,3.5 108.75,-3 C108.81999969482422,-4.818999767303467 108.25,-6.25 106,-5.25 C103.75,-4.25 102,-1 102.5,-3.25 C103,-5.5 107,-7 106.25,-9.5 C105.5,-12 103.25,-14 102.25,-14.5z"></path></g></g><g style="display: block;" transform="matrix(-0.06271708011627197,-0.5967131853103638,0.5967131853103638,-0.06271708011627197,296.97991943359375,104.87216186523438)" opacity="1"><g opacity="1" transform="matrix(1,0,0,1,-209.75,-80.25)"><path fill="rgb(255,255,255)" fill-opacity="1" d=" M4.621204766542977e-16,-7.546999931335449 C4.621204766542977e-16,-7.546999931335449 2.2177138328552246,-3.0524210929870605 2.2177138328552246,-3.0524210929870605 C2.2177138328552246,-3.0524210929870605 7.177623748779297,-2.332151174545288 7.177623748779297,-2.332151174545288 C7.177623748779297,-2.332151174545288 3.588336229324341,1.1659210920333862 3.588336229324341,1.1659210920333862 C3.588336229324341,1.1659210920333862 4.4360151290893555,6.105651378631592 4.4360151290893555,6.105651378631592 C4.4360151290893555,6.105651378631592 2.310296127921497e-16,3.7730000019073486 2.310296127921497e-16,3.7730000019073486 C2.310296127921497e-16,3.7730000019073486 -4.4360151290893555,6.105651378631592 -4.4360151290893555,6.105651378631592 C-4.4360151290893555,6.105651378631592 -3.588336229324341,1.1659210920333862 -3.588336229324341,1.1659210920333862 C-3.588336229324341,1.1659210920333862 -7.177623748779297,-2.332151174545288 -7.177623748779297,-2.332151174545288 C-7.177623748779297,-2.332151174545288 -2.2177138328552246,-3.0524210929870605 -2.2177138328552246,-3.0524210929870605 C-2.2177138328552246,-3.0524210929870605 4.621204766542977e-16,-7.546999931335449 4.621204766542977e-16,-7.546999931335449z"></path></g></g><g style="display: block;" transform="matrix(0.6000000238418579,0,0,0.6000000238418579,-149.6037139892578,191.95689392089844)" opacity="1"><g opacity="1" transform="matrix(1,0,0,1,159.09300231933594,-46.43199920654297)"><path fill="rgb(255,255,255)" fill-opacity="1" d=" M0,-4.550000190734863 C2.5111451148986816,-4.550000190734863 4.550000190734863,-2.5111451148986816 4.550000190734863,0 C4.550000190734863,2.5111451148986816 2.5111451148986816,4.550000190734863 0,4.550000190734863 C-2.5111451148986816,4.550000190734863 -4.550000190734863,2.5111451148986816 -4.550000190734863,0 C-4.550000190734863,-2.5111451148986816 -2.5111451148986816,-4.550000190734863 0,-4.550000190734863z"></path></g></g><g style="display: block;" transform="matrix(0,-0.6000000238418579,0.6000000238418579,0,312.29376220703125,72.9271240234375)" opacity="1"><g opacity="1" transform="matrix(1,0,0,1,-209.75,-80.25)"><path fill="rgb(255,255,255)" fill-opacity="1" d=" M4.621204766542977e-16,-7.546999931335449 C4.621204766542977e-16,-7.546999931335449 2.2177138328552246,-3.0524210929870605 2.2177138328552246,-3.0524210929870605 C2.2177138328552246,-3.0524210929870605 7.177623748779297,-2.332151174545288 7.177623748779297,-2.332151174545288 C7.177623748779297,-2.332151174545288 3.588336229324341,1.1659210920333862 3.588336229324341,1.1659210920333862 C3.588336229324341,1.1659210920333862 4.4360151290893555,6.105651378631592 4.4360151290893555,6.105651378631592 C4.4360151290893555,6.105651378631592 2.310296127921497e-16,3.7730000019073486 2.310296127921497e-16,3.7730000019073486 C2.310296127921497e-16,3.7730000019073486 -4.4360151290893555,6.105651378631592 -4.4360151290893555,6.105651378631592 C-4.4360151290893555,6.105651378631592 -3.588336229324341,1.1659210920333862 -3.588336229324341,1.1659210920333862 C-3.588336229324341,1.1659210920333862 -7.177623748779297,-2.332151174545288 -7.177623748779297,-2.332151174545288 C-7.177623748779297,-2.332151174545288 -2.2177138328552246,-3.0524210929870605 -2.2177138328552246,-3.0524210929870605 C-2.2177138328552246,-3.0524210929870605 4.621204766542977e-16,-7.546999931335449 4.621204766542977e-16,-7.546999931335449z"></path></g></g><g style="display: none;" transform="matrix(0.9046570062637329,0,0,0.9046570062637329,173.08737182617188,45.92769241333008)" opacity="0.05102857142844343"><g opacity="1" transform="matrix(1,0,0,1,-29.5,37.5)"><path fill="rgb(255,255,255)" fill-opacity="1" d=" M0,-23.106000900268555 C-12.76099967956543,-23.106000900268555 -23.106000900268555,-12.76099967956543 -23.106000900268555,0 C-23.106000900268555,12.76099967956543 -12.76099967956543,23.106000900268555 0,23.106000900268555 C12.76099967956543,23.106000900268555 23.106000900268555,12.76099967956543 23.106000900268555,0 C23.106000900268555,-12.76099967956543 12.76099967956543,-23.106000900268555 0,-23.106000900268555z"></path></g></g><g style="display: none;" transform="matrix(1.1020901203155518,0,0,1.1020901203155518,178.91165161132812,38.62266540527344)" opacity="0.009108333333216478"><g opacity="1" transform="matrix(1,0,0,1,-29.5,37.5)"><path stroke-linecap="butt" stroke-linejoin="miter" fill-opacity="0" stroke-miterlimit="4" stroke="rgb(255,255,255)" stroke-opacity="1" stroke-width="4" d=" M0,-23.106000900268555 C-12.76099967956543,-23.106000900268555 -23.106000900268555,-12.76099967956543 -23.106000900268555,0 C-23.106000900268555,12.76099967956543 -12.76099967956543,23.106000900268555 0,23.106000900268555 C12.76099967956543,23.106000900268555 23.106000900268555,12.76099967956543 23.106000900268555,0 C23.106000900268555,-12.76099967956543 12.76099967956543,-23.106000900268555 0,-23.106000900268555z"></path></g></g><g style="display: none;" transform="matrix(2.550814151763916,-0.5236069560050964,0.5236069560050964,2.550814151763916,868.1814575195312,600.39453125)" opacity="1"><g opacity="1" transform="matrix(1.090000033378601,0,0,1.090000033378601,0,0)"><path fill="rgb(112,255,129)" fill-opacity="1" d=" M-209.5,-105.25 C-210.25,-105.375 -210.31300354003906,-103.81199645996094 -210.68800354003906,-103.81199645996094 C-211.06300354003906,-103.81199645996094 -211.68699645996094,-103.18699645996094 -211.375,-102.81199645996094 C-211.06300354003906,-102.43699645996094 -210.25,-102 -209.81199645996094,-102.375 C-209.37399291992188,-102.75 -208.81199645996094,-102.3759994506836 -208.5,-102.93800354003906 C-208.18800354003906,-103.5 -208.75,-103.81300354003906 -208.68800354003906,-104.375 C-208.62600708007812,-104.93699645996094 -208.75,-105.125 -209.5,-105.25z"></path></g></g><g style="display: none;" transform="matrix(2.6040000915527344,0,0,2.6040000915527344,972.3603515625,704.5197143554688)" opacity="1"><g opacity="1" transform="matrix(1.090000033378601,0,0,1.090000033378601,0,0)"><path fill="rgb(112,255,129)" fill-opacity="1" d=" M-209.5919952392578,-104.57599639892578 C-210.3419952392578,-104.70099639892578 -210.81500244140625,-104.45600128173828 -211.0570068359375,-104.16899871826172 C-211.70799255371094,-103.39700317382812 -211.68699645996094,-103.18699645996094 -211.375,-102.81199645996094 C-211.06300354003906,-102.43699645996094 -210.78399658203125,-102.06600189208984 -210.38099670410156,-102.2300033569336 C-209.97799682617188,-102.39399719238281 -209.2220001220703,-102.177001953125 -208.91000366210938,-102.73899841308594 C-208.59800720214844,-103.3010025024414 -208.89500427246094,-103.36399841308594 -208.83299255371094,-103.9260025024414 C-208.8159942626953,-104.24299621582031 -208.8419952392578,-104.45099639892578 -209.5919952392578,-104.57599639892578z"></path></g></g><g style="display: none;" transform="matrix(0.8820000290870667,0,0,0.8820000290870667,77.26049041748047,369.34307861328125)" opacity="1"><g opacity="1" transform="matrix(1,0,0,1,0,0)"><path fill="rgb(255,255,255)" fill-opacity="1" d=" M102.25,-14.5 C101.25,-15 99.5,-11.75 98.5,-10.5 C97.5,-9.25 96,-3.25 96,0.25 C96,3.75 99.25,3.25 101.5,3.5 C103.75,3.75 104.5,8.5 103.75,11 C103,13.5 107.75,10.75 110,7 C110.9280014038086,5.453999996185303 108.5,3.5 108.75,-3 C108.81999969482422,-4.818999767303467 108.25,-6.25 106,-5.25 C103.75,-4.25 102,-1 102.5,-3.25 C103,-5.5 107,-7 106.25,-9.5 C105.5,-12 103.25,-14 102.25,-14.5z"></path></g></g><g style="display: none;" transform="matrix(-0.08886171132326126,-0.5933831930160522,0.5933831930160522,-0.08886171132326126,338.5469055175781,468.79681396484375)" opacity="1"><g opacity="1" transform="matrix(1,0,0,1,0,0)"><path fill="rgb(255,255,255)" fill-opacity="1" d=" M132,-114 C129.75,-116.25 126,-110.5 124,-107.75 C122,-105 123,-103 120,-95.5 C117,-88 119.25,-86 123,-86.25 C126.75,-86.5 132.25,-92.5 132.5,-96.75 C132.75,-101 134.25,-111.75 132,-114z"></path></g></g><g style="display: none;" transform="matrix(0.10418891161680222,-0.5908846855163574,0.5908846855163574,0.10418891161680222,232.65090942382812,485.8962097167969)" opacity="1"><g opacity="1" transform="matrix(1,0,0,1,0,0)"><path fill="rgb(112,255,129)" fill-opacity="1" d=" M39,-66.5 C28.351999282836914,-72.23300170898438 31.5,-64.5 32,-61.5 C32.5,-58.5 32.5,-51.5 35.5,-51.5 C38.5,-51.5 45.5,-51.5 47,-53 C48.5,-54.5 45.5,-63 39,-66.5z"></path></g></g><g style="display: none;" transform="matrix(0.35731664299964905,-0.04387296736240387,0.04387296736240387,0.35731664299964905,346.6318054199219,449.7707824707031)" opacity="1"><g opacity="1" transform="matrix(1,0,0,1,0,0)"><path fill="rgb(112,255,129)" fill-opacity="1" d=" M39,-66.5 C28.351999282836914,-72.23300170898438 31.5,-64.5 32,-61.5 C32.5,-58.5 32.5,-51.5 35.5,-51.5 C38.5,-51.5 45.5,-51.5 47,-53 C48.5,-54.5 45.5,-63 39,-66.5z"></path></g></g><g style="display: none;" transform="matrix(0.6000000238418579,0,0,0.6000000238418579,17.58317756652832,474.23321533203125)" opacity="1"><g opacity="1" transform="matrix(1,0,0,1,226.0279998779297,-88.72200012207031)"><path fill="rgb(112,255,129)" fill-opacity="1" d=" M0,-9.050000190734863 C4.99469518661499,-9.050000190734863 9.050000190734863,-4.99469518661499 9.050000190734863,0 C9.050000190734863,4.99469518661499 4.99469518661499,9.050000190734863 0,9.050000190734863 C-4.99469518661499,9.050000190734863 -9.050000190734863,4.99469518661499 -9.050000190734863,0 C-9.050000190734863,-4.99469518661499 -4.99469518661499,-9.050000190734863 0,-9.050000190734863z"></path></g></g><g style="display: none;" transform="matrix(-0.15529143810272217,-0.5795555114746094,0.5795555114746094,-0.15529143810272217,192.15480041503906,302.4641418457031)" opacity="1"><g opacity="1" transform="matrix(1,0,0,1,-209.75,-80.25)"><path fill="rgb(255,255,255)" fill-opacity="1" d=" M4.621204766542977e-16,-7.546999931335449 C4.621204766542977e-16,-7.546999931335449 2.2177138328552246,-3.0524210929870605 2.2177138328552246,-3.0524210929870605 C2.2177138328552246,-3.0524210929870605 7.177623748779297,-2.332151174545288 7.177623748779297,-2.332151174545288 C7.177623748779297,-2.332151174545288 3.588336229324341,1.1659210920333862 3.588336229324341,1.1659210920333862 C3.588336229324341,1.1659210920333862 4.4360151290893555,6.105651378631592 4.4360151290893555,6.105651378631592 C4.4360151290893555,6.105651378631592 2.310296127921497e-16,3.7730000019073486 2.310296127921497e-16,3.7730000019073486 C2.310296127921497e-16,3.7730000019073486 -4.4360151290893555,6.105651378631592 -4.4360151290893555,6.105651378631592 C-4.4360151290893555,6.105651378631592 -3.588336229324341,1.1659210920333862 -3.588336229324341,1.1659210920333862 C-3.588336229324341,1.1659210920333862 -7.177623748779297,-2.332151174545288 -7.177623748779297,-2.332151174545288 C-7.177623748779297,-2.332151174545288 -2.2177138328552246,-3.0524210929870605 -2.2177138328552246,-3.0524210929870605 C-2.2177138328552246,-3.0524210929870605 4.621204766542977e-16,-7.546999931335449 4.621204766542977e-16,-7.546999931335449z"></path></g></g><g style="display: none;" transform="matrix(-0.28168296813964844,-0.5297685861587524,0.5297685861587524,-0.28168296813964844,316.03094482421875,271.6759948730469)" opacity="1"><g opacity="1" transform="matrix(1,0,0,1,-209.75,-80.25)"><path fill="rgb(112,255,129)" fill-opacity="1" d=" M4.621204766542977e-16,-7.546999931335449 C4.621204766542977e-16,-7.546999931335449 2.2177138328552246,-3.0524210929870605 2.2177138328552246,-3.0524210929870605 C2.2177138328552246,-3.0524210929870605 7.177623748779297,-2.332151174545288 7.177623748779297,-2.332151174545288 C7.177623748779297,-2.332151174545288 3.588336229324341,1.1659210920333862 3.588336229324341,1.1659210920333862 C3.588336229324341,1.1659210920333862 4.4360151290893555,6.105651378631592 4.4360151290893555,6.105651378631592 C4.4360151290893555,6.105651378631592 2.310296127921497e-16,3.7730000019073486 2.310296127921497e-16,3.7730000019073486 C2.310296127921497e-16,3.7730000019073486 -4.4360151290893555,6.105651378631592 -4.4360151290893555,6.105651378631592 C-4.4360151290893555,6.105651378631592 -3.588336229324341,1.1659210920333862 -3.588336229324341,1.1659210920333862 C-3.588336229324341,1.1659210920333862 -7.177623748779297,-2.332151174545288 -7.177623748779297,-2.332151174545288 C-7.177623748779297,-2.332151174545288 -2.2177138328552246,-3.0524210929870605 -2.2177138328552246,-3.0524210929870605 C-2.2177138328552246,-3.0524210929870605 4.621204766542977e-16,-7.546999931335449 4.621204766542977e-16,-7.546999931335449z"></path></g></g><g style="display: none;" transform="matrix(0.5657001733779907,-0.19995833933353424,0.19995833933353424,0.5657001733779907,322.7022705078125,405.2561950683594)" opacity="1"><g opacity="1" transform="matrix(1.4800000190734863,0,0,1.4800000190734863,-209.75,-80.25)"><path fill="rgb(255,255,255)" fill-opacity="1" d=" M4.621204766542977e-16,-7.546999931335449 C4.621204766542977e-16,-7.546999931335449 1.8865000009536743,-3.2675137519836426 1.8865000009536743,-3.2675137519836426 C1.8865000009536743,-3.2675137519836426 6.53589391708374,-3.7734999656677246 6.53589391708374,-3.7734999656677246 C6.53589391708374,-3.7734999656677246 3.7730000019073486,-8.377742948056596e-16 3.7730000019073486,-8.377742948056596e-16 C3.7730000019073486,-8.377742948056596e-16 6.53589391708374,3.7734999656677246 6.53589391708374,3.7734999656677246 C6.53589391708374,3.7734999656677246 1.8865000009536743,3.2675137519836426 1.8865000009536743,3.2675137519836426 C1.8865000009536743,3.2675137519836426 3.813661659959975e-15,7.546999931335449 3.813661659959975e-15,7.546999931335449 C3.813661659959975e-15,7.546999931335449 -1.8865000009536743,3.2675137519836426 -1.8865000009536743,3.2675137519836426 C-1.8865000009536743,3.2675137519836426 -6.53589391708374,3.7734999656677246 -6.53589391708374,3.7734999656677246 C-6.53589391708374,3.7734999656677246 -3.7730000019073486,3.813156404806938e-15 -3.7730000019073486,3.813156404806938e-15 C-3.7730000019073486,3.813156404806938e-15 -6.53589391708374,-3.7734999656677246 -6.53589391708374,-3.7734999656677246 C-6.53589391708374,-3.7734999656677246 -1.8865000009536743,-3.2675137519836426 -1.8865000009536743,-3.2675137519836426 C-1.8865000009536743,-3.2675137519836426 4.621204766542977e-16,-7.546999931335449 4.621204766542977e-16,-7.546999931335449z"></path></g></g><g style="display: none;" transform="matrix(0.5926130414009094,-0.0938606783747673,0.0938606783747673,0.5926130414009094,444.6329040527344,455.46990966796875)" opacity="1"><g opacity="1" transform="matrix(1.4800000190734863,0,0,1.4800000190734863,-209.75,-80.25)"><path fill="rgb(112,255,129)" fill-opacity="1" d=" M4.621204766542977e-16,-7.546999931335449 C4.621204766542977e-16,-7.546999931335449 1.8865000009536743,-3.2675137519836426 1.8865000009536743,-3.2675137519836426 C1.8865000009536743,-3.2675137519836426 6.53589391708374,-3.7734999656677246 6.53589391708374,-3.7734999656677246 C6.53589391708374,-3.7734999656677246 3.7730000019073486,-8.377742948056596e-16 3.7730000019073486,-8.377742948056596e-16 C3.7730000019073486,-8.377742948056596e-16 6.53589391708374,3.7734999656677246 6.53589391708374,3.7734999656677246 C6.53589391708374,3.7734999656677246 1.8865000009536743,3.2675137519836426 1.8865000009536743,3.2675137519836426 C1.8865000009536743,3.2675137519836426 3.813661659959975e-15,7.546999931335449 3.813661659959975e-15,7.546999931335449 C3.813661659959975e-15,7.546999931335449 -1.8865000009536743,3.2675137519836426 -1.8865000009536743,3.2675137519836426 C-1.8865000009536743,3.2675137519836426 -6.53589391708374,3.7734999656677246 -6.53589391708374,3.7734999656677246 C-6.53589391708374,3.7734999656677246 -3.7730000019073486,3.813156404806938e-15 -3.7730000019073486,3.813156404806938e-15 C-3.7730000019073486,3.813156404806938e-15 -6.53589391708374,-3.7734999656677246 -6.53589391708374,-3.7734999656677246 C-6.53589391708374,-3.7734999656677246 -1.8865000009536743,-3.2675137519836426 -1.8865000009536743,-3.2675137519836426 C-1.8865000009536743,-3.2675137519836426 4.621204766542977e-16,-7.546999931335449 4.621204766542977e-16,-7.546999931335449z"></path></g></g><g style="display: none;" transform="matrix(-0.9543692469596863,2.4228076934814453,-2.4228076934814453,-0.9543692469596863,45.75944900512695,869.4651489257812)" opacity="1"><g opacity="1" transform="matrix(1.090000033378601,0,0,1.090000033378601,0,0)"><path fill="rgb(255,255,255)" fill-opacity="1" d=" M-209.5,-105.25 C-210.25,-105.375 -210.31300354003906,-103.81199645996094 -210.68800354003906,-103.81199645996094 C-211.06300354003906,-103.81199645996094 -211.68699645996094,-103.18699645996094 -211.375,-102.81199645996094 C-211.06300354003906,-102.43699645996094 -210.25,-102 -209.81199645996094,-102.375 C-209.37399291992188,-102.75 -208.81199645996094,-102.3759994506836 -208.5,-102.93800354003906 C-208.18800354003906,-103.5 -208.75,-103.81300354003906 -208.68800354003906,-104.375 C-208.62600708007812,-104.93699645996094 -208.75,-105.125 -209.5,-105.25z"></path></g></g><g style="display: none;" transform="matrix(2.3788726329803467,-1.0591423511505127,1.0591423511505127,2.3788726329803467,765.7993774414062,298.9195861816406)" opacity="1"><g opacity="1" transform="matrix(1.090000033378601,0,0,1.090000033378601,0,0)"><path fill="rgb(255,255,255)" fill-opacity="1" d=" M-209.5919952392578,-104.57599639892578 C-210.3419952392578,-104.70099639892578 -210.81500244140625,-104.45600128173828 -211.0570068359375,-104.16899871826172 C-211.70799255371094,-103.39700317382812 -211.68699645996094,-103.18699645996094 -211.375,-102.81199645996094 C-211.06300354003906,-102.43699645996094 -210.78399658203125,-102.06600189208984 -210.38099670410156,-102.2300033569336 C-209.97799682617188,-102.39399719238281 -209.2220001220703,-102.177001953125 -208.91000366210938,-102.73899841308594 C-208.59800720214844,-103.3010025024414 -208.89500427246094,-103.36399841308594 -208.83299255371094,-103.9260025024414 C-208.8159942626953,-104.24299621582031 -208.8419952392578,-104.45099639892578 -209.5919952392578,-104.57599639892578z"></path></g></g><g style="display: none;" transform="matrix(0.6000000238418579,0,0,0.6000000238418579,192.7441864013672,460.8592224121094)" opacity="1"><g opacity="1" transform="matrix(1,0,0,1,159.09300231933594,-46.43199920654297)"><path fill="rgb(255,255,255)" fill-opacity="1" d=" M0,-4.550000190734863 C2.5111451148986816,-4.550000190734863 4.550000190734863,-2.5111451148986816 4.550000190734863,0 C4.550000190734863,2.5111451148986816 2.5111451148986816,4.550000190734863 0,4.550000190734863 C-2.5111451148986816,4.550000190734863 -4.550000190734863,2.5111451148986816 -4.550000190734863,0 C-4.550000190734863,-2.5111451148986816 -2.5111451148986816,-4.550000190734863 0,-4.550000190734863z"></path></g></g><g style="display: none;" transform="matrix(0.20521210134029388,0.5638155937194824,-0.5638155937194824,0.20521210134029388,246.24703979492188,552.278564453125)" opacity="1"><g opacity="1" transform="matrix(1,0,0,1,-209.75,-80.25)"><path fill="rgb(112,255,129)" fill-opacity="1" d=" M4.621204766542977e-16,-7.546999931335449 C4.621204766542977e-16,-7.546999931335449 2.2177138328552246,-3.0524210929870605 2.2177138328552246,-3.0524210929870605 C2.2177138328552246,-3.0524210929870605 7.177623748779297,-2.332151174545288 7.177623748779297,-2.332151174545288 C7.177623748779297,-2.332151174545288 3.588336229324341,1.1659210920333862 3.588336229324341,1.1659210920333862 C3.588336229324341,1.1659210920333862 4.4360151290893555,6.105651378631592 4.4360151290893555,6.105651378631592 C4.4360151290893555,6.105651378631592 2.310296127921497e-16,3.7730000019073486 2.310296127921497e-16,3.7730000019073486 C2.310296127921497e-16,3.7730000019073486 -4.4360151290893555,6.105651378631592 -4.4360151290893555,6.105651378631592 C-4.4360151290893555,6.105651378631592 -3.588336229324341,1.1659210920333862 -3.588336229324341,1.1659210920333862 C-3.588336229324341,1.1659210920333862 -7.177623748779297,-2.332151174545288 -7.177623748779297,-2.332151174545288 C-7.177623748779297,-2.332151174545288 -2.2177138328552246,-3.0524210929870605 -2.2177138328552246,-3.0524210929870605 C-2.2177138328552246,-3.0524210929870605 4.621204766542977e-16,-7.546999931335449 4.621204766542977e-16,-7.546999931335449z"></path></g></g><g style="display: none;" transform="matrix(0.43800002336502075,0,0,0.43800002336502075,-188.80027770996094,453.8602600097656)" opacity="1"><g opacity="1" transform="matrix(1,0,0,1,226.0279998779297,-88.72200012207031)"><path fill="rgb(112,255,129)" fill-opacity="1" d=" M0,-9.050000190734863 C4.99469518661499,-9.050000190734863 9.050000190734863,-4.99469518661499 9.050000190734863,0 C9.050000190734863,4.99469518661499 4.99469518661499,9.050000190734863 0,9.050000190734863 C-4.99469518661499,9.050000190734863 -9.050000190734863,4.99469518661499 -9.050000190734863,0 C-9.050000190734863,-4.99469518661499 -4.99469518661499,-9.050000190734863 0,-9.050000190734863z"></path></g></g><g style="display: none;" transform="matrix(-0.5523029565811157,0.2344386875629425,-0.2344386875629425,-0.5523029565811157,-198.05926513671875,400.6512145996094)" opacity="1"><g opacity="1" transform="matrix(1.4800000190734863,0,0,1.4800000190734863,-209.75,-80.25)"><path fill="rgb(112,255,129)" fill-opacity="1" d=" M4.621204766542977e-16,-7.546999931335449 C4.621204766542977e-16,-7.546999931335449 1.8865000009536743,-3.2675137519836426 1.8865000009536743,-3.2675137519836426 C1.8865000009536743,-3.2675137519836426 6.53589391708374,-3.7734999656677246 6.53589391708374,-3.7734999656677246 C6.53589391708374,-3.7734999656677246 3.7730000019073486,-8.377742948056596e-16 3.7730000019073486,-8.377742948056596e-16 C3.7730000019073486,-8.377742948056596e-16 6.53589391708374,3.7734999656677246 6.53589391708374,3.7734999656677246 C6.53589391708374,3.7734999656677246 1.8865000009536743,3.2675137519836426 1.8865000009536743,3.2675137519836426 C1.8865000009536743,3.2675137519836426 3.813661659959975e-15,7.546999931335449 3.813661659959975e-15,7.546999931335449 C3.813661659959975e-15,7.546999931335449 -1.8865000009536743,3.2675137519836426 -1.8865000009536743,3.2675137519836426 C-1.8865000009536743,3.2675137519836426 -6.53589391708374,3.7734999656677246 -6.53589391708374,3.7734999656677246 C-6.53589391708374,3.7734999656677246 -3.7730000019073486,3.813156404806938e-15 -3.7730000019073486,3.813156404806938e-15 C-3.7730000019073486,3.813156404806938e-15 -6.53589391708374,-3.7734999656677246 -6.53589391708374,-3.7734999656677246 C-6.53589391708374,-3.7734999656677246 -1.8865000009536743,-3.2675137519836426 -1.8865000009536743,-3.2675137519836426 C-1.8865000009536743,-3.2675137519836426 4.621204766542977e-16,-7.546999931335449 4.621204766542977e-16,-7.546999931335449z"></path></g></g><g style="display: none;" transform="matrix(-0.15189926326274872,-0.8688214421272278,0.8688214421272278,-0.15189926326274872,-5.812283039093018,523.5838623046875)" opacity="1"><g opacity="1" transform="matrix(1,0,0,1,0,0)"><path fill="rgb(255,255,255)" fill-opacity="1" d=" M102.25,-14.5 C101.25,-15 99.5,-11.75 98.5,-10.5 C97.5,-9.25 96,-3.25 96,0.25 C96,3.75 99.25,3.25 101.5,3.5 C103.75,3.75 104.5,8.5 103.75,11 C103,13.5 107.75,10.75 110,7 C110.9280014038086,5.453999996185303 108.5,3.5 108.75,-3 C108.81999969482422,-4.818999767303467 108.25,-6.25 106,-5.25 C103.75,-4.25 102,-1 102.5,-3.25 C103,-5.5 107,-7 106.25,-9.5 C105.5,-12 103.25,-14 102.25,-14.5z"></path></g></g><g style="display: none;" transform="matrix(-0.4945765435695648,-0.3396970331668854,0.3396970331668854,-0.4945765435695648,535.77001953125,409.3323059082031)" opacity="1"><g opacity="1" transform="matrix(1,0,0,1,0,0)"><path fill="rgb(255,255,255)" fill-opacity="1" d=" M132,-114 C129.75,-116.25 126,-110.5 124,-107.75 C122,-105 123,-103 120,-95.5 C117,-88 119.25,-86 123,-86.25 C126.75,-86.5 132.25,-92.5 132.5,-96.75 C132.75,-101 134.25,-111.75 132,-114z"></path></g></g><g style="display: none;" transform="matrix(0.8238750100135803,-0.3148873746395111,0.3148873746395111,0.8238750100135803,346.4616394042969,455.7345275878906)" opacity="1"><g opacity="1" transform="matrix(1,0,0,1,0,0)"><path fill="rgb(112,255,129)" fill-opacity="1" d=" M102.25,-14.5 C101.25,-15 99.5,-11.75 98.5,-10.5 C97.5,-9.25 96,-3.25 96,0.25 C96,3.75 99.25,3.25 101.5,3.5 C103.75,3.75 104.5,8.5 103.75,11 C103,13.5 107.75,10.75 110,7 C110.9280014038086,5.453999996185303 108.5,3.5 108.75,-3 C108.81999969482422,-4.818999767303467 108.25,-6.25 106,-5.25 C103.75,-4.25 102,-1 102.5,-3.25 C103,-5.5 107,-7 106.25,-9.5 C105.5,-12 103.25,-14 102.25,-14.5z"></path></g></g><g style="display: none;" transform="matrix(-0.06271708011627197,-0.5967131853103638,0.5967131853103638,-0.06271708011627197,441.7313232421875,215.2063751220703)" opacity="1"><g opacity="1" transform="matrix(1,0,0,1,-209.75,-80.25)"><path fill="rgb(255,255,255)" fill-opacity="1" d=" M4.621204766542977e-16,-7.546999931335449 C4.621204766542977e-16,-7.546999931335449 2.2177138328552246,-3.0524210929870605 2.2177138328552246,-3.0524210929870605 C2.2177138328552246,-3.0524210929870605 7.177623748779297,-2.332151174545288 7.177623748779297,-2.332151174545288 C7.177623748779297,-2.332151174545288 3.588336229324341,1.1659210920333862 3.588336229324341,1.1659210920333862 C3.588336229324341,1.1659210920333862 4.4360151290893555,6.105651378631592 4.4360151290893555,6.105651378631592 C4.4360151290893555,6.105651378631592 2.310296127921497e-16,3.7730000019073486 2.310296127921497e-16,3.7730000019073486 C2.310296127921497e-16,3.7730000019073486 -4.4360151290893555,6.105651378631592 -4.4360151290893555,6.105651378631592 C-4.4360151290893555,6.105651378631592 -3.588336229324341,1.1659210920333862 -3.588336229324341,1.1659210920333862 C-3.588336229324341,1.1659210920333862 -7.177623748779297,-2.332151174545288 -7.177623748779297,-2.332151174545288 C-7.177623748779297,-2.332151174545288 -2.2177138328552246,-3.0524210929870605 -2.2177138328552246,-3.0524210929870605 C-2.2177138328552246,-3.0524210929870605 4.621204766542977e-16,-7.546999931335449 4.621204766542977e-16,-7.546999931335449z"></path></g></g><g style="display: none;" transform="matrix(0.6000000238418579,0,0,0.6000000238418579,-94.05583190917969,384.0592041015625)" opacity="1"><g opacity="1" transform="matrix(1,0,0,1,159.09300231933594,-46.43199920654297)"><path fill="rgb(255,255,255)" fill-opacity="1" d=" M0,-4.550000190734863 C2.5111451148986816,-4.550000190734863 4.550000190734863,-2.5111451148986816 4.550000190734863,0 C4.550000190734863,2.5111451148986816 2.5111451148986816,4.550000190734863 0,4.550000190734863 C-2.5111451148986816,4.550000190734863 -4.550000190734863,2.5111451148986816 -4.550000190734863,0 C-4.550000190734863,-2.5111451148986816 -2.5111451148986816,-4.550000190734863 0,-4.550000190734863z"></path></g></g><g style="display: none;" transform="matrix(0,-0.6000000238418579,0.6000000238418579,0,465.95001220703125,191.9499969482422)" opacity="1"><g opacity="1" transform="matrix(1,0,0,1,-209.75,-80.25)"><path fill="rgb(255,255,255)" fill-opacity="1" d=" M4.621204766542977e-16,-7.546999931335449 C4.621204766542977e-16,-7.546999931335449 2.2177138328552246,-3.0524210929870605 2.2177138328552246,-3.0524210929870605 C2.2177138328552246,-3.0524210929870605 7.177623748779297,-2.332151174545288 7.177623748779297,-2.332151174545288 C7.177623748779297,-2.332151174545288 3.588336229324341,1.1659210920333862 3.588336229324341,1.1659210920333862 C3.588336229324341,1.1659210920333862 4.4360151290893555,6.105651378631592 4.4360151290893555,6.105651378631592 C4.4360151290893555,6.105651378631592 2.310296127921497e-16,3.7730000019073486 2.310296127921497e-16,3.7730000019073486 C2.310296127921497e-16,3.7730000019073486 -4.4360151290893555,6.105651378631592 -4.4360151290893555,6.105651378631592 C-4.4360151290893555,6.105651378631592 -3.588336229324341,1.1659210920333862 -3.588336229324341,1.1659210920333862 C-3.588336229324341,1.1659210920333862 -7.177623748779297,-2.332151174545288 -7.177623748779297,-2.332151174545288 C-7.177623748779297,-2.332151174545288 -2.2177138328552246,-3.0524210929870605 -2.2177138328552246,-3.0524210929870605 C-2.2177138328552246,-3.0524210929870605 4.621204766542977e-16,-7.546999931335449 4.621204766542977e-16,-7.546999931335449z"></path></g></g><g style="display: none;" transform="matrix(0.9069089889526367,0,0,0.9069089889526367,295.15380859375,2.8443634510040283)" opacity="0.04472857142853314"><g opacity="1" transform="matrix(1,0,0,1,-29.5,37.5)"><path fill="rgb(255,255,255)" fill-opacity="1" d=" M0,-23.106000900268555 C-12.76099967956543,-23.106000900268555 -23.106000900268555,-12.76099967956543 -23.106000900268555,0 C-23.106000900268555,12.76099967956543 -12.76099967956543,23.106000900268555 0,23.106000900268555 C12.76099967956543,23.106000900268555 23.106000900268555,12.76099967956543 23.106000900268555,0 C23.106000900268555,-12.76099967956543 12.76099967956543,-23.106000900268555 0,-23.106000900268555z"></path></g></g><g style="display: none;" transform="matrix(1.1032814979553223,0,0,1.1032814979553223,300.9468078613281,-4.421417713165283)" opacity="0.005433333333270269"><g opacity="1" transform="matrix(1,0,0,1,-29.5,37.5)"><path stroke-linecap="butt" stroke-linejoin="miter" fill-opacity="0" stroke-miterlimit="4" stroke="rgb(255,255,255)" stroke-opacity="1" stroke-width="4" d=" M0,-23.106000900268555 C-12.76099967956543,-23.106000900268555 -23.106000900268555,-12.76099967956543 -23.106000900268555,0 C-23.106000900268555,12.76099967956543 -12.76099967956543,23.106000900268555 0,23.106000900268555 C12.76099967956543,23.106000900268555 23.106000900268555,12.76099967956543 23.106000900268555,0 C23.106000900268555,-12.76099967956543 12.76099967956543,-23.106000900268555 0,-23.106000900268555z"></path></g></g><g style="display: block;" transform="matrix(-2.4564437866210938,0.8641185164451599,-0.8641185164451599,-2.4564437866210938,-145.58270263671875,13.10806941986084)" opacity="1"><g opacity="1" transform="matrix(1.090000033378601,0,0,1.090000033378601,0,0)"><path fill="rgb(112,255,129)" fill-opacity="1" d=" M-209.5,-105.25 C-210.25,-105.375 -210.31300354003906,-103.81199645996094 -210.68800354003906,-103.81199645996094 C-211.06300354003906,-103.81199645996094 -211.68699645996094,-103.18699645996094 -211.375,-102.81199645996094 C-211.06300354003906,-102.43699645996094 -210.25,-102 -209.81199645996094,-102.375 C-209.37399291992188,-102.75 -208.81199645996094,-102.3759994506836 -208.5,-102.93800354003906 C-208.18800354003906,-103.5 -208.75,-103.81300354003906 -208.68800354003906,-104.375 C-208.62600708007812,-104.93699645996094 -208.75,-105.125 -209.5,-105.25z"></path></g></g><g style="display: block;" transform="matrix(2.6040000915527344,0,0,2.6040000915527344,1192.62548828125,299.7599792480469)" opacity="1"><g opacity="1" transform="matrix(1.090000033378601,0,0,1.090000033378601,0,0)"><path fill="rgb(112,255,129)" fill-opacity="1" d=" M-209.5919952392578,-104.57599639892578 C-210.3419952392578,-104.70099639892578 -210.81500244140625,-104.45600128173828 -211.0570068359375,-104.16899871826172 C-211.70799255371094,-103.39700317382812 -211.68699645996094,-103.18699645996094 -211.375,-102.81199645996094 C-211.06300354003906,-102.43699645996094 -210.78399658203125,-102.06600189208984 -210.38099670410156,-102.2300033569336 C-209.97799682617188,-102.39399719238281 -209.2220001220703,-102.177001953125 -208.91000366210938,-102.73899841308594 C-208.59800720214844,-103.3010025024414 -208.89500427246094,-103.36399841308594 -208.83299255371094,-103.9260025024414 C-208.8159942626953,-104.24299621582031 -208.8419952392578,-104.45099639892578 -209.5919952392578,-104.57599639892578z"></path></g></g><g style="display: block;" transform="matrix(0.8820000290870667,0,0,0.8820000290870667,405.33648681640625,-131.19264221191406)" opacity="1"><g opacity="1" transform="matrix(1,0,0,1,0,0)"><path fill="rgb(255,255,255)" fill-opacity="1" d=" M102.25,-14.5 C101.25,-15 99.5,-11.75 98.5,-10.5 C97.5,-9.25 96,-3.25 96,0.25 C96,3.75 99.25,3.25 101.5,3.5 C103.75,3.75 104.5,8.5 103.75,11 C103,13.5 107.75,10.75 110,7 C110.9280014038086,5.453999996185303 108.5,3.5 108.75,-3 C108.81999969482422,-4.818999767303467 108.25,-6.25 106,-5.25 C103.75,-4.25 102,-1 102.5,-3.25 C103,-5.5 107,-7 106.25,-9.5 C105.5,-12 103.25,-14 102.25,-14.5z"></path></g></g><g style="display: block;" transform="matrix(-0.04855680838227272,0.5980319976806641,-0.5980319976806641,-0.04855680838227272,489.4087219238281,-93.8057632446289)" opacity="1"><g opacity="1" transform="matrix(1,0,0,1,0,0)"><path fill="rgb(255,255,255)" fill-opacity="1" d=" M132,-114 C129.75,-116.25 126,-110.5 124,-107.75 C122,-105 123,-103 120,-95.5 C117,-88 119.25,-86 123,-86.25 C126.75,-86.5 132.25,-92.5 132.5,-96.75 C132.75,-101 134.25,-111.75 132,-114z"></path></g></g><g style="display: block;" transform="matrix(-0.009093515574932098,0.5999311208724976,-0.5999311208724976,-0.009093515574932098,476.1152038574219,-17.923181533813477)" opacity="1"><g opacity="1" transform="matrix(1,0,0,1,0,0)"><path fill="rgb(112,255,129)" fill-opacity="1" d=" M39,-66.5 C28.351999282836914,-72.23300170898438 31.5,-64.5 32,-61.5 C32.5,-58.5 32.5,-51.5 35.5,-51.5 C38.5,-51.5 45.5,-51.5 47,-53 C48.5,-54.5 45.5,-63 39,-66.5z"></path></g></g><g style="display: block;" transform="matrix(-0.3584469258785248,0.03340406343340874,-0.03340406343340874,-0.3584469258785248,599.0526733398438,-4.629157066345215)" opacity="1"><g opacity="1" transform="matrix(1,0,0,1,0,0)"><path fill="rgb(112,255,129)" fill-opacity="1" d=" M39,-66.5 C28.351999282836914,-72.23300170898438 31.5,-64.5 32,-61.5 C32.5,-58.5 32.5,-51.5 35.5,-51.5 C38.5,-51.5 45.5,-51.5 47,-53 C48.5,-54.5 45.5,-63 39,-66.5z"></path></g></g><g style="display: block;" transform="matrix(0.6000000238418579,0,0,0.6000000238418579,316.1322326660156,86.02861022949219)" opacity="1"><g opacity="1" transform="matrix(1,0,0,1,226.0279998779297,-88.72200012207031)"><path fill="rgb(112,255,129)" fill-opacity="1" d=" M0,-9.050000190734863 C4.99469518661499,-9.050000190734863 9.050000190734863,-4.99469518661499 9.050000190734863,0 C9.050000190734863,4.99469518661499 4.99469518661499,9.050000190734863 0,9.050000190734863 C-4.99469518661499,9.050000190734863 -9.050000190734863,4.99469518661499 -9.050000190734863,0 C-9.050000190734863,-4.99469518661499 -4.99469518661499,-9.050000190734863 0,-9.050000190734863z"></path></g></g><g style="display: block;" transform="matrix(0.07566589117050171,0.5952098369598389,-0.5952098369598389,0.07566589117050171,458.2364196777344,144.44818115234375)" opacity="1"><g opacity="1" transform="matrix(1,0,0,1,-209.75,-80.25)"><path fill="rgb(255,255,255)" fill-opacity="1" d=" M4.621204766542977e-16,-7.546999931335449 C4.621204766542977e-16,-7.546999931335449 2.2177138328552246,-3.0524210929870605 2.2177138328552246,-3.0524210929870605 C2.2177138328552246,-3.0524210929870605 7.177623748779297,-2.332151174545288 7.177623748779297,-2.332151174545288 C7.177623748779297,-2.332151174545288 3.588336229324341,1.1659210920333862 3.588336229324341,1.1659210920333862 C3.588336229324341,1.1659210920333862 4.4360151290893555,6.105651378631592 4.4360151290893555,6.105651378631592 C4.4360151290893555,6.105651378631592 2.310296127921497e-16,3.7730000019073486 2.310296127921497e-16,3.7730000019073486 C2.310296127921497e-16,3.7730000019073486 -4.4360151290893555,6.105651378631592 -4.4360151290893555,6.105651378631592 C-4.4360151290893555,6.105651378631592 -3.588336229324341,1.1659210920333862 -3.588336229324341,1.1659210920333862 C-3.588336229324341,1.1659210920333862 -7.177623748779297,-2.332151174545288 -7.177623748779297,-2.332151174545288 C-7.177623748779297,-2.332151174545288 -2.2177138328552246,-3.0524210929870605 -2.2177138328552246,-3.0524210929870605 C-2.2177138328552246,-3.0524210929870605 4.621204766542977e-16,-7.546999931335449 4.621204766542977e-16,-7.546999931335449z"></path></g></g><g style="display: block;" transform="matrix(0.5829514861106873,0.14201276004314423,-0.14201276004314423,0.5829514861106873,684.0186157226562,56.83498001098633)" opacity="1"><g opacity="1" transform="matrix(1,0,0,1,-209.75,-80.25)"><path fill="rgb(112,255,129)" fill-opacity="1" d=" M4.621204766542977e-16,-7.546999931335449 C4.621204766542977e-16,-7.546999931335449 2.2177138328552246,-3.0524210929870605 2.2177138328552246,-3.0524210929870605 C2.2177138328552246,-3.0524210929870605 7.177623748779297,-2.332151174545288 7.177623748779297,-2.332151174545288 C7.177623748779297,-2.332151174545288 3.588336229324341,1.1659210920333862 3.588336229324341,1.1659210920333862 C3.588336229324341,1.1659210920333862 4.4360151290893555,6.105651378631592 4.4360151290893555,6.105651378631592 C4.4360151290893555,6.105651378631592 2.310296127921497e-16,3.7730000019073486 2.310296127921497e-16,3.7730000019073486 C2.310296127921497e-16,3.7730000019073486 -4.4360151290893555,6.105651378631592 -4.4360151290893555,6.105651378631592 C-4.4360151290893555,6.105651378631592 -3.588336229324341,1.1659210920333862 -3.588336229324341,1.1659210920333862 C-3.588336229324341,1.1659210920333862 -7.177623748779297,-2.332151174545288 -7.177623748779297,-2.332151174545288 C-7.177623748779297,-2.332151174545288 -2.2177138328552246,-3.0524210929870605 -2.2177138328552246,-3.0524210929870605 C-2.2177138328552246,-3.0524210929870605 4.621204766542977e-16,-7.546999931335449 4.621204766542977e-16,-7.546999931335449z"></path></g></g><g style="display: block;" transform="matrix(-0.3388298451900482,0.49517104029655457,-0.49517104029655457,-0.3388298451900482,383.2762756347656,76.81908416748047)" opacity="1"><g opacity="1" transform="matrix(1.4800000190734863,0,0,1.4800000190734863,-209.75,-80.25)"><path fill="rgb(255,255,255)" fill-opacity="1" d=" M4.621204766542977e-16,-7.546999931335449 C4.621204766542977e-16,-7.546999931335449 1.8865000009536743,-3.2675137519836426 1.8865000009536743,-3.2675137519836426 C1.8865000009536743,-3.2675137519836426 6.53589391708374,-3.7734999656677246 6.53589391708374,-3.7734999656677246 C6.53589391708374,-3.7734999656677246 3.7730000019073486,-8.377742948056596e-16 3.7730000019073486,-8.377742948056596e-16 C3.7730000019073486,-8.377742948056596e-16 6.53589391708374,3.7734999656677246 6.53589391708374,3.7734999656677246 C6.53589391708374,3.7734999656677246 1.8865000009536743,3.2675137519836426 1.8865000009536743,3.2675137519836426 C1.8865000009536743,3.2675137519836426 3.813661659959975e-15,7.546999931335449 3.813661659959975e-15,7.546999931335449 C3.813661659959975e-15,7.546999931335449 -1.8865000009536743,3.2675137519836426 -1.8865000009536743,3.2675137519836426 C-1.8865000009536743,3.2675137519836426 -6.53589391708374,3.7734999656677246 -6.53589391708374,3.7734999656677246 C-6.53589391708374,3.7734999656677246 -3.7730000019073486,3.813156404806938e-15 -3.7730000019073486,3.813156404806938e-15 C-3.7730000019073486,3.813156404806938e-15 -6.53589391708374,-3.7734999656677246 -6.53589391708374,-3.7734999656677246 C-6.53589391708374,-3.7734999656677246 -1.8865000009536743,-3.2675137519836426 -1.8865000009536743,-3.2675137519836426 C-1.8865000009536743,-3.2675137519836426 4.621204766542977e-16,-7.546999931335449 4.621204766542977e-16,-7.546999931335449z"></path></g></g><g style="display: block;" transform="matrix(-0.5520076155662537,-0.23513321578502655,0.23513321578502655,-0.5520076155662537,469.8271789550781,-51.81857681274414)" opacity="1"><g opacity="1" transform="matrix(1.4800000190734863,0,0,1.4800000190734863,-209.75,-80.25)"><path fill="rgb(112,255,129)" fill-opacity="1" d=" M4.621204766542977e-16,-7.546999931335449 C4.621204766542977e-16,-7.546999931335449 1.8865000009536743,-3.2675137519836426 1.8865000009536743,-3.2675137519836426 C1.8865000009536743,-3.2675137519836426 6.53589391708374,-3.7734999656677246 6.53589391708374,-3.7734999656677246 C6.53589391708374,-3.7734999656677246 3.7730000019073486,-8.377742948056596e-16 3.7730000019073486,-8.377742948056596e-16 C3.7730000019073486,-8.377742948056596e-16 6.53589391708374,3.7734999656677246 6.53589391708374,3.7734999656677246 C6.53589391708374,3.7734999656677246 1.8865000009536743,3.2675137519836426 1.8865000009536743,3.2675137519836426 C1.8865000009536743,3.2675137519836426 3.813661659959975e-15,7.546999931335449 3.813661659959975e-15,7.546999931335449 C3.813661659959975e-15,7.546999931335449 -1.8865000009536743,3.2675137519836426 -1.8865000009536743,3.2675137519836426 C-1.8865000009536743,3.2675137519836426 -6.53589391708374,3.7734999656677246 -6.53589391708374,3.7734999656677246 C-6.53589391708374,3.7734999656677246 -3.7730000019073486,3.813156404806938e-15 -3.7730000019073486,3.813156404806938e-15 C-3.7730000019073486,3.813156404806938e-15 -6.53589391708374,-3.7734999656677246 -6.53589391708374,-3.7734999656677246 C-6.53589391708374,-3.7734999656677246 -1.8865000009536743,-3.2675137519836426 -1.8865000009536743,-3.2675137519836426 C-1.8865000009536743,-3.2675137519836426 4.621204766542977e-16,-7.546999931335449 4.621204766542977e-16,-7.546999931335449z"></path></g></g><g style="display: block;" transform="matrix(-0.9543692469596863,2.4228076934814453,-2.4228076934814453,-0.9543692469596863,202.95660400390625,452.90374755859375)" opacity="1"><g opacity="1" transform="matrix(1.090000033378601,0,0,1.090000033378601,0,0)"><path fill="rgb(255,255,255)" fill-opacity="1" d=" M-209.5,-105.25 C-210.25,-105.375 -210.31300354003906,-103.81199645996094 -210.68800354003906,-103.81199645996094 C-211.06300354003906,-103.81199645996094 -211.68699645996094,-103.18699645996094 -211.375,-102.81199645996094 C-211.06300354003906,-102.43699645996094 -210.25,-102 -209.81199645996094,-102.375 C-209.37399291992188,-102.75 -208.81199645996094,-102.3759994506836 -208.5,-102.93800354003906 C-208.18800354003906,-103.5 -208.75,-103.81300354003906 -208.68800354003906,-104.375 C-208.62600708007812,-104.93699645996094 -208.75,-105.125 -209.5,-105.25z"></path></g></g><g style="display: block;" transform="matrix(2.3788726329803467,-1.0591423511505127,1.0591423511505127,2.3788726329803467,1084.3870849609375,125.5356674194336)" opacity="1"><g opacity="1" transform="matrix(1.090000033378601,0,0,1.090000033378601,0,0)"><path fill="rgb(255,255,255)" fill-opacity="1" d=" M-209.5919952392578,-104.57599639892578 C-210.3419952392578,-104.70099639892578 -210.81500244140625,-104.45600128173828 -211.0570068359375,-104.16899871826172 C-211.70799255371094,-103.39700317382812 -211.68699645996094,-103.18699645996094 -211.375,-102.81199645996094 C-211.06300354003906,-102.43699645996094 -210.78399658203125,-102.06600189208984 -210.38099670410156,-102.2300033569336 C-209.97799682617188,-102.39399719238281 -209.2220001220703,-102.177001953125 -208.91000366210938,-102.73899841308594 C-208.59800720214844,-103.3010025024414 -208.89500427246094,-103.36399841308594 -208.83299255371094,-103.9260025024414 C-208.8159942626953,-104.24299621582031 -208.8419952392578,-104.45099639892578 -209.5919952392578,-104.57599639892578z"></path></g></g><g style="display: block;" transform="matrix(0.6000000238418579,0,0,0.6000000238418579,454.0194396972656,32.73125076293945)" opacity="1"><g opacity="1" transform="matrix(1,0,0,1,159.09300231933594,-46.43199920654297)"><path fill="rgb(255,255,255)" fill-opacity="1" d=" M0,-4.550000190734863 C2.5111451148986816,-4.550000190734863 4.550000190734863,-2.5111451148986816 4.550000190734863,0 C4.550000190734863,2.5111451148986816 2.5111451148986816,4.550000190734863 0,4.550000190734863 C-2.5111451148986816,4.550000190734863 -4.550000190734863,2.5111451148986816 -4.550000190734863,0 C-4.550000190734863,-2.5111451148986816 -2.5111451148986816,-4.550000190734863 0,-4.550000190734863z"></path></g></g><g style="display: block;" transform="matrix(0.44498875737190247,-0.40247365832328796,0.40247365832328796,0.44498875737190247,647.70166015625,-69.22501373291016)" opacity="1"><g opacity="1" transform="matrix(1,0,0,1,-209.75,-80.25)"><path fill="rgb(112,255,129)" fill-opacity="1" d=" M4.621204766542977e-16,-7.546999931335449 C4.621204766542977e-16,-7.546999931335449 2.2177138328552246,-3.0524210929870605 2.2177138328552246,-3.0524210929870605 C2.2177138328552246,-3.0524210929870605 7.177623748779297,-2.332151174545288 7.177623748779297,-2.332151174545288 C7.177623748779297,-2.332151174545288 3.588336229324341,1.1659210920333862 3.588336229324341,1.1659210920333862 C3.588336229324341,1.1659210920333862 4.4360151290893555,6.105651378631592 4.4360151290893555,6.105651378631592 C4.4360151290893555,6.105651378631592 2.310296127921497e-16,3.7730000019073486 2.310296127921497e-16,3.7730000019073486 C2.310296127921497e-16,3.7730000019073486 -4.4360151290893555,6.105651378631592 -4.4360151290893555,6.105651378631592 C-4.4360151290893555,6.105651378631592 -3.588336229324341,1.1659210920333862 -3.588336229324341,1.1659210920333862 C-3.588336229324341,1.1659210920333862 -7.177623748779297,-2.332151174545288 -7.177623748779297,-2.332151174545288 C-7.177623748779297,-2.332151174545288 -2.2177138328552246,-3.0524210929870605 -2.2177138328552246,-3.0524210929870605 C-2.2177138328552246,-3.0524210929870605 4.621204766542977e-16,-7.546999931335449 4.621204766542977e-16,-7.546999931335449z"></path></g></g><g style="display: block;" transform="matrix(0.43800002336502075,0,0,0.43800002336502075,262.16815185546875,32.50675582885742)" opacity="1"><g opacity="1" transform="matrix(1,0,0,1,226.0279998779297,-88.72200012207031)"><path fill="rgb(112,255,129)" fill-opacity="1" d=" M0,-9.050000190734863 C4.99469518661499,-9.050000190734863 9.050000190734863,-4.99469518661499 9.050000190734863,0 C9.050000190734863,4.99469518661499 4.99469518661499,9.050000190734863 0,9.050000190734863 C-4.99469518661499,9.050000190734863 -9.050000190734863,4.99469518661499 -9.050000190734863,0 C-9.050000190734863,-4.99469518661499 -4.99469518661499,-9.050000190734863 0,-9.050000190734863z"></path></g></g><g style="display: block;" transform="matrix(-0.13554146885871887,-0.5844900012016296,0.5844900012016296,-0.13554146885871887,418.99615478515625,-66.59295654296875)" opacity="1"><g opacity="1" transform="matrix(1.4800000190734863,0,0,1.4800000190734863,-209.75,-80.25)"><path fill="rgb(112,255,129)" fill-opacity="1" d=" M4.621204766542977e-16,-7.546999931335449 C4.621204766542977e-16,-7.546999931335449 1.8865000009536743,-3.2675137519836426 1.8865000009536743,-3.2675137519836426 C1.8865000009536743,-3.2675137519836426 6.53589391708374,-3.7734999656677246 6.53589391708374,-3.7734999656677246 C6.53589391708374,-3.7734999656677246 3.7730000019073486,-8.377742948056596e-16 3.7730000019073486,-8.377742948056596e-16 C3.7730000019073486,-8.377742948056596e-16 6.53589391708374,3.7734999656677246 6.53589391708374,3.7734999656677246 C6.53589391708374,3.7734999656677246 1.8865000009536743,3.2675137519836426 1.8865000009536743,3.2675137519836426 C1.8865000009536743,3.2675137519836426 3.813661659959975e-15,7.546999931335449 3.813661659959975e-15,7.546999931335449 C3.813661659959975e-15,7.546999931335449 -1.8865000009536743,3.2675137519836426 -1.8865000009536743,3.2675137519836426 C-1.8865000009536743,3.2675137519836426 -6.53589391708374,3.7734999656677246 -6.53589391708374,3.7734999656677246 C-6.53589391708374,3.7734999656677246 -3.7730000019073486,3.813156404806938e-15 -3.7730000019073486,3.813156404806938e-15 C-3.7730000019073486,3.813156404806938e-15 -6.53589391708374,-3.7734999656677246 -6.53589391708374,-3.7734999656677246 C-6.53589391708374,-3.7734999656677246 -1.8865000009536743,-3.2675137519836426 -1.8865000009536743,-3.2675137519836426 C-1.8865000009536743,-3.2675137519836426 4.621204766542977e-16,-7.546999931335449 4.621204766542977e-16,-7.546999931335449z"></path></g></g><g style="display: block;" transform="matrix(-0.29373833537101746,0.8316501379013062,-0.8316501379013062,-0.29373833537101746,423.1095886230469,-41.218475341796875)" opacity="1"><g opacity="1" transform="matrix(1,0,0,1,0,0)"><path fill="rgb(255,255,255)" fill-opacity="1" d=" M102.25,-14.5 C101.25,-15 99.5,-11.75 98.5,-10.5 C97.5,-9.25 96,-3.25 96,0.25 C96,3.75 99.25,3.25 101.5,3.5 C103.75,3.75 104.5,8.5 103.75,11 C103,13.5 107.75,10.75 110,7 C110.9280014038086,5.453999996185303 108.5,3.5 108.75,-3 C108.81999969482422,-4.818999767303467 108.25,-6.25 106,-5.25 C103.75,-4.25 102,-1 102.5,-3.25 C103,-5.5 107,-7 106.25,-9.5 C105.5,-12 103.25,-14 102.25,-14.5z"></path></g></g><g style="display: block;" transform="matrix(0.1104840412735939,0.5897400379180908,-0.5897400379180908,0.1104840412735939,556.751220703125,-8.72082233428955)" opacity="1"><g opacity="1" transform="matrix(1,0,0,1,0,0)"><path fill="rgb(255,255,255)" fill-opacity="1" d=" M132,-114 C129.75,-116.25 126,-110.5 124,-107.75 C122,-105 123,-103 120,-95.5 C117,-88 119.25,-86 123,-86.25 C126.75,-86.5 132.25,-92.5 132.5,-96.75 C132.75,-101 134.25,-111.75 132,-114z"></path></g></g><g style="display: block;" transform="matrix(-0.6246585845947266,0.6226761937141418,-0.6226761937141418,-0.6246585845947266,720.6254272460938,-19.732345581054688)" opacity="1"><g opacity="1" transform="matrix(1,0,0,1,0,0)"><path fill="rgb(112,255,129)" fill-opacity="1" d=" M102.25,-14.5 C101.25,-15 99.5,-11.75 98.5,-10.5 C97.5,-9.25 96,-3.25 96,0.25 C96,3.75 99.25,3.25 101.5,3.5 C103.75,3.75 104.5,8.5 103.75,11 C103,13.5 107.75,10.75 110,7 C110.9280014038086,5.453999996185303 108.5,3.5 108.75,-3 C108.81999969482422,-4.818999767303467 108.25,-6.25 106,-5.25 C103.75,-4.25 102,-1 102.5,-3.25 C103,-5.5 107,-7 106.25,-9.5 C105.5,-12 103.25,-14 102.25,-14.5z"></path></g></g><g style="display: block;" transform="matrix(-0.06271708011627197,-0.5967131853103638,0.5967131853103638,-0.06271708011627197,658.6402587890625,-27.484758377075195)" opacity="1"><g opacity="1" transform="matrix(1,0,0,1,-209.75,-80.25)"><path fill="rgb(255,255,255)" fill-opacity="1" d=" M4.621204766542977e-16,-7.546999931335449 C4.621204766542977e-16,-7.546999931335449 2.2177138328552246,-3.0524210929870605 2.2177138328552246,-3.0524210929870605 C2.2177138328552246,-3.0524210929870605 7.177623748779297,-2.332151174545288 7.177623748779297,-2.332151174545288 C7.177623748779297,-2.332151174545288 3.588336229324341,1.1659210920333862 3.588336229324341,1.1659210920333862 C3.588336229324341,1.1659210920333862 4.4360151290893555,6.105651378631592 4.4360151290893555,6.105651378631592 C4.4360151290893555,6.105651378631592 2.310296127921497e-16,3.7730000019073486 2.310296127921497e-16,3.7730000019073486 C2.310296127921497e-16,3.7730000019073486 -4.4360151290893555,6.105651378631592 -4.4360151290893555,6.105651378631592 C-4.4360151290893555,6.105651378631592 -3.588336229324341,1.1659210920333862 -3.588336229324341,1.1659210920333862 C-3.588336229324341,1.1659210920333862 -7.177623748779297,-2.332151174545288 -7.177623748779297,-2.332151174545288 C-7.177623748779297,-2.332151174545288 -2.2177138328552246,-3.0524210929870605 -2.2177138328552246,-3.0524210929870605 C-2.2177138328552246,-3.0524210929870605 4.621204766542977e-16,-7.546999931335449 4.621204766542977e-16,-7.546999931335449z"></path></g></g><g style="display: block;" transform="matrix(0.6000000238418579,0,0,0.6000000238418579,303.1954650878906,15.345915794372559)" opacity="1"><g opacity="1" transform="matrix(1,0,0,1,159.09300231933594,-46.43199920654297)"><path fill="rgb(255,255,255)" fill-opacity="1" d=" M0,-4.550000190734863 C2.5111451148986816,-4.550000190734863 4.550000190734863,-2.5111451148986816 4.550000190734863,0 C4.550000190734863,2.5111451148986816 2.5111451148986816,4.550000190734863 0,4.550000190734863 C-2.5111451148986816,4.550000190734863 -4.550000190734863,2.5111451148986816 -4.550000190734863,0 C-4.550000190734863,-2.5111451148986816 -2.5111451148986816,-4.550000190734863 0,-4.550000190734863z"></path></g></g><g style="display: block;" transform="matrix(0,-0.6000000238418579,0.6000000238418579,0,670.790771484375,-64.9273452758789)" opacity="1"><g opacity="1" transform="matrix(1,0,0,1,-209.75,-80.25)"><path fill="rgb(255,255,255)" fill-opacity="1" d=" M4.621204766542977e-16,-7.546999931335449 C4.621204766542977e-16,-7.546999931335449 2.2177138328552246,-3.0524210929870605 2.2177138328552246,-3.0524210929870605 C2.2177138328552246,-3.0524210929870605 7.177623748779297,-2.332151174545288 7.177623748779297,-2.332151174545288 C7.177623748779297,-2.332151174545288 3.588336229324341,1.1659210920333862 3.588336229324341,1.1659210920333862 C3.588336229324341,1.1659210920333862 4.4360151290893555,6.105651378631592 4.4360151290893555,6.105651378631592 C4.4360151290893555,6.105651378631592 2.310296127921497e-16,3.7730000019073486 2.310296127921497e-16,3.7730000019073486 C2.310296127921497e-16,3.7730000019073486 -4.4360151290893555,6.105651378631592 -4.4360151290893555,6.105651378631592 C-4.4360151290893555,6.105651378631592 -3.588336229324341,1.1659210920333862 -3.588336229324341,1.1659210920333862 C-3.588336229324341,1.1659210920333862 -7.177623748779297,-2.332151174545288 -7.177623748779297,-2.332151174545288 C-7.177623748779297,-2.332151174545288 -2.2177138328552246,-3.0524210929870605 -2.2177138328552246,-3.0524210929870605 C-2.2177138328552246,-3.0524210929870605 4.621204766542977e-16,-7.546999931335449 4.621204766542977e-16,-7.546999931335449z"></path></g></g><g style="display: none;" transform="matrix(0.9167287349700928,0,0,0.9167287349700928,564.4434814453125,4.481036186218262)" opacity="0.016814285714157648"><g opacity="1" transform="matrix(1,0,0,1,-29.5,37.5)"><path fill="rgb(255,255,255)" fill-opacity="1" d=" M0,-23.106000900268555 C-12.76099967956543,-23.106000900268555 -23.106000900268555,-12.76099967956543 -23.106000900268555,0 C-23.106000900268555,12.76099967956543 -12.76099967956543,23.106000900268555 0,23.106000900268555 C12.76099967956543,23.106000900268555 23.106000900268555,12.76099967956543 23.106000900268555,0 C23.106000900268555,-12.76099967956543 12.76099967956543,-23.106000900268555 0,-23.106000900268555z"></path></g></g><g style="display: none;" transform="matrix(1.0990582704544067,0,0,1.0990582704544067,569.8222045898438,-2.265164375305176)" opacity="0.018375000000008298"><g opacity="1" transform="matrix(1,0,0,1,-29.5,37.5)"><path stroke-linecap="butt" stroke-linejoin="miter" fill-opacity="0" stroke-miterlimit="4" stroke="rgb(255,255,255)" stroke-opacity="1" stroke-width="4" d=" M0,-23.106000900268555 C-12.76099967956543,-23.106000900268555 -23.106000900268555,-12.76099967956543 -23.106000900268555,0 C-23.106000900268555,12.76099967956543 -12.76099967956543,23.106000900268555 0,23.106000900268555 C12.76099967956543,23.106000900268555 23.106000900268555,12.76099967956543 23.106000900268555,0 C23.106000900268555,-12.76099967956543 12.76099967956543,-23.106000900268555 0,-23.106000900268555z"></path></g></g><g style="display: block;" transform="matrix(-2.5584194660186768,-0.48508381843566895,0.48508381843566895,-2.5584194660186768,-204.17312622070312,-39.7851448059082)" opacity="1"><g opacity="1" transform="matrix(1.090000033378601,0,0,1.090000033378601,0,0)"><path fill="rgb(112,255,129)" fill-opacity="1" d=" M-209.5,-105.25 C-210.25,-105.375 -210.31300354003906,-103.81199645996094 -210.68800354003906,-103.81199645996094 C-211.06300354003906,-103.81199645996094 -211.68699645996094,-103.18699645996094 -211.375,-102.81199645996094 C-211.06300354003906,-102.43699645996094 -210.25,-102 -209.81199645996094,-102.375 C-209.37399291992188,-102.75 -208.81199645996094,-102.3759994506836 -208.5,-102.93800354003906 C-208.18800354003906,-103.5 -208.75,-103.81300354003906 -208.68800354003906,-104.375 C-208.62600708007812,-104.93699645996094 -208.75,-105.125 -209.5,-105.25z"></path></g></g><g style="display: block;" transform="matrix(2.6040000915527344,0,0,2.6040000915527344,1021.8949584960938,551.0664672851562)" opacity="1"><g opacity="1" transform="matrix(1.090000033378601,0,0,1.090000033378601,0,0)"><path fill="rgb(112,255,129)" fill-opacity="1" d=" M-209.5919952392578,-104.57599639892578 C-210.3419952392578,-104.70099639892578 -210.81500244140625,-104.45600128173828 -211.0570068359375,-104.16899871826172 C-211.70799255371094,-103.39700317382812 -211.68699645996094,-103.18699645996094 -211.375,-102.81199645996094 C-211.06300354003906,-102.43699645996094 -210.78399658203125,-102.06600189208984 -210.38099670410156,-102.2300033569336 C-209.97799682617188,-102.39399719238281 -209.2220001220703,-102.177001953125 -208.91000366210938,-102.73899841308594 C-208.59800720214844,-103.3010025024414 -208.89500427246094,-103.36399841308594 -208.83299255371094,-103.9260025024414 C-208.8159942626953,-104.24299621582031 -208.8419952392578,-104.45099639892578 -209.5919952392578,-104.57599639892578z"></path></g></g><g style="display: block;" transform="matrix(0.8820000290870667,0,0,0.8820000290870667,206.8599090576172,123.3467788696289)" opacity="1"><g opacity="1" transform="matrix(1,0,0,1,0,0)"><path fill="rgb(255,255,255)" fill-opacity="1" d=" M102.25,-14.5 C101.25,-15 99.5,-11.75 98.5,-10.5 C97.5,-9.25 96,-3.25 96,0.25 C96,3.75 99.25,3.25 101.5,3.5 C103.75,3.75 104.5,8.5 103.75,11 C103,13.5 107.75,10.75 110,7 C110.9280014038086,5.453999996185303 108.5,3.5 108.75,-3 C108.81999969482422,-4.818999767303467 108.25,-6.25 106,-5.25 C103.75,-4.25 102,-1 102.5,-3.25 C103,-5.5 107,-7 106.25,-9.5 C105.5,-12 103.25,-14 102.25,-14.5z"></path></g></g><g style="display: block;" transform="matrix(-0.3126079738140106,0.5121291875839233,-0.5121291875839233,-0.3126079738140106,349.49957275390625,150.4815673828125)" opacity="1"><g opacity="1" transform="matrix(1,0,0,1,0,0)"><path fill="rgb(255,255,255)" fill-opacity="1" d=" M132,-114 C129.75,-116.25 126,-110.5 124,-107.75 C122,-105 123,-103 120,-95.5 C117,-88 119.25,-86 123,-86.25 C126.75,-86.5 132.25,-92.5 132.5,-96.75 C132.75,-101 134.25,-111.75 132,-114z"></path></g></g><g style="display: block;" transform="matrix(-0.3108317255973816,0.5132091641426086,-0.5132091641426086,-0.3108317255973816,303.910400390625,224.42433166503906)" opacity="1"><g opacity="1" transform="matrix(1,0,0,1,0,0)"><path fill="rgb(112,255,129)" fill-opacity="1" d=" M39,-66.5 C28.351999282836914,-72.23300170898438 31.5,-64.5 32,-61.5 C32.5,-58.5 32.5,-51.5 35.5,-51.5 C38.5,-51.5 45.5,-51.5 47,-53 C48.5,-54.5 45.5,-63 39,-66.5z"></path></g></g><g style="display: block;" transform="matrix(-0.330700546503067,-0.142257422208786,0.142257422208786,-0.330700546503067,437.25262451171875,252.51922607421875)" opacity="1"><g opacity="1" transform="matrix(1,0,0,1,0,0)"><path fill="rgb(112,255,129)" fill-opacity="1" d=" M39,-66.5 C28.351999282836914,-72.23300170898438 31.5,-64.5 32,-61.5 C32.5,-58.5 32.5,-51.5 35.5,-51.5 C38.5,-51.5 45.5,-51.5 47,-53 C48.5,-54.5 45.5,-63 39,-66.5z"></path></g></g><g style="display: block;" transform="matrix(0.6000000238418579,0,0,0.6000000238418579,125.4475326538086,323.2059326171875)" opacity="1"><g opacity="1" transform="matrix(1,0,0,1,226.0279998779297,-88.72200012207031)"><path fill="rgb(112,255,129)" fill-opacity="1" d=" M0,-9.050000190734863 C4.99469518661499,-9.050000190734863 9.050000190734863,-4.99469518661499 9.050000190734863,0 C9.050000190734863,4.99469518661499 4.99469518661499,9.050000190734863 0,9.050000190734863 C-4.99469518661499,9.050000190734863 -9.050000190734863,4.99469518661499 -9.050000190734863,0 C-9.050000190734863,-4.99469518661499 -4.99469518661499,-9.050000190734863 0,-9.050000190734863z"></path></g></g><g style="display: block;" transform="matrix(-0.20894840359687805,0.5624416470527649,-0.5624416470527649,-0.20894840359687805,211.65481567382812,357.65789794921875)" opacity="1"><g opacity="1" transform="matrix(1,0,0,1,-209.75,-80.25)"><path fill="rgb(255,255,255)" fill-opacity="1" d=" M4.621204766542977e-16,-7.546999931335449 C4.621204766542977e-16,-7.546999931335449 2.2177138328552246,-3.0524210929870605 2.2177138328552246,-3.0524210929870605 C2.2177138328552246,-3.0524210929870605 7.177623748779297,-2.332151174545288 7.177623748779297,-2.332151174545288 C7.177623748779297,-2.332151174545288 3.588336229324341,1.1659210920333862 3.588336229324341,1.1659210920333862 C3.588336229324341,1.1659210920333862 4.4360151290893555,6.105651378631592 4.4360151290893555,6.105651378631592 C4.4360151290893555,6.105651378631592 2.310296127921497e-16,3.7730000019073486 2.310296127921497e-16,3.7730000019073486 C2.310296127921497e-16,3.7730000019073486 -4.4360151290893555,6.105651378631592 -4.4360151290893555,6.105651378631592 C-4.4360151290893555,6.105651378631592 -3.588336229324341,1.1659210920333862 -3.588336229324341,1.1659210920333862 C-3.588336229324341,1.1659210920333862 -7.177623748779297,-2.332151174545288 -7.177623748779297,-2.332151174545288 C-7.177623748779297,-2.332151174545288 -2.2177138328552246,-3.0524210929870605 -2.2177138328552246,-3.0524210929870605 C-2.2177138328552246,-3.0524210929870605 4.621204766542977e-16,-7.546999931335449 4.621204766542977e-16,-7.546999931335449z"></path></g></g><g style="display: block;" transform="matrix(0.3831978142261505,0.4616919755935669,-0.4616919755935669,0.3831978142261505,441.326416015625,351.172607421875)" opacity="1"><g opacity="1" transform="matrix(1,0,0,1,-209.75,-80.25)"><path fill="rgb(112,255,129)" fill-opacity="1" d=" M4.621204766542977e-16,-7.546999931335449 C4.621204766542977e-16,-7.546999931335449 2.2177138328552246,-3.0524210929870605 2.2177138328552246,-3.0524210929870605 C2.2177138328552246,-3.0524210929870605 7.177623748779297,-2.332151174545288 7.177623748779297,-2.332151174545288 C7.177623748779297,-2.332151174545288 3.588336229324341,1.1659210920333862 3.588336229324341,1.1659210920333862 C3.588336229324341,1.1659210920333862 4.4360151290893555,6.105651378631592 4.4360151290893555,6.105651378631592 C4.4360151290893555,6.105651378631592 2.310296127921497e-16,3.7730000019073486 2.310296127921497e-16,3.7730000019073486 C2.310296127921497e-16,3.7730000019073486 -4.4360151290893555,6.105651378631592 -4.4360151290893555,6.105651378631592 C-4.4360151290893555,6.105651378631592 -3.588336229324341,1.1659210920333862 -3.588336229324341,1.1659210920333862 C-3.588336229324341,1.1659210920333862 -7.177623748779297,-2.332151174545288 -7.177623748779297,-2.332151174545288 C-7.177623748779297,-2.332151174545288 -2.2177138328552246,-3.0524210929870605 -2.2177138328552246,-3.0524210929870605 C-2.2177138328552246,-3.0524210929870605 4.621204766542977e-16,-7.546999931335449 4.621204766542977e-16,-7.546999931335449z"></path></g></g><g style="display: block;" transform="matrix(-0.5603329539299011,0.2145390510559082,-0.2145390510559082,-0.5603329539299011,169.4484405517578,239.7203826904297)" opacity="1"><g opacity="1" transform="matrix(1.4800000190734863,0,0,1.4800000190734863,-209.75,-80.25)"><path fill="rgb(255,255,255)" fill-opacity="1" d=" M4.621204766542977e-16,-7.546999931335449 C4.621204766542977e-16,-7.546999931335449 1.8865000009536743,-3.2675137519836426 1.8865000009536743,-3.2675137519836426 C1.8865000009536743,-3.2675137519836426 6.53589391708374,-3.7734999656677246 6.53589391708374,-3.7734999656677246 C6.53589391708374,-3.7734999656677246 3.7730000019073486,-8.377742948056596e-16 3.7730000019073486,-8.377742948056596e-16 C3.7730000019073486,-8.377742948056596e-16 6.53589391708374,3.7734999656677246 6.53589391708374,3.7734999656677246 C6.53589391708374,3.7734999656677246 1.8865000009536743,3.2675137519836426 1.8865000009536743,3.2675137519836426 C1.8865000009536743,3.2675137519836426 3.813661659959975e-15,7.546999931335449 3.813661659959975e-15,7.546999931335449 C3.813661659959975e-15,7.546999931335449 -1.8865000009536743,3.2675137519836426 -1.8865000009536743,3.2675137519836426 C-1.8865000009536743,3.2675137519836426 -6.53589391708374,3.7734999656677246 -6.53589391708374,3.7734999656677246 C-6.53589391708374,3.7734999656677246 -3.7730000019073486,3.813156404806938e-15 -3.7730000019073486,3.813156404806938e-15 C-3.7730000019073486,3.813156404806938e-15 -6.53589391708374,-3.7734999656677246 -6.53589391708374,-3.7734999656677246 C-6.53589391708374,-3.7734999656677246 -1.8865000009536743,-3.2675137519836426 -1.8865000009536743,-3.2675137519836426 C-1.8865000009536743,-3.2675137519836426 4.621204766542977e-16,-7.546999931335449 4.621204766542977e-16,-7.546999931335449z"></path></g></g><g style="display: block;" transform="matrix(-0.4107506573200226,-0.4373601973056793,0.4373601973056793,-0.4107506573200226,338.59039306640625,154.1624298095703)" opacity="1"><g opacity="1" transform="matrix(1.4800000190734863,0,0,1.4800000190734863,-209.75,-80.25)"><path fill="rgb(112,255,129)" fill-opacity="1" d=" M4.621204766542977e-16,-7.546999931335449 C4.621204766542977e-16,-7.546999931335449 1.8865000009536743,-3.2675137519836426 1.8865000009536743,-3.2675137519836426 C1.8865000009536743,-3.2675137519836426 6.53589391708374,-3.7734999656677246 6.53589391708374,-3.7734999656677246 C6.53589391708374,-3.7734999656677246 3.7730000019073486,-8.377742948056596e-16 3.7730000019073486,-8.377742948056596e-16 C3.7730000019073486,-8.377742948056596e-16 6.53589391708374,3.7734999656677246 6.53589391708374,3.7734999656677246 C6.53589391708374,3.7734999656677246 1.8865000009536743,3.2675137519836426 1.8865000009536743,3.2675137519836426 C1.8865000009536743,3.2675137519836426 3.813661659959975e-15,7.546999931335449 3.813661659959975e-15,7.546999931335449 C3.813661659959975e-15,7.546999931335449 -1.8865000009536743,3.2675137519836426 -1.8865000009536743,3.2675137519836426 C-1.8865000009536743,3.2675137519836426 -6.53589391708374,3.7734999656677246 -6.53589391708374,3.7734999656677246 C-6.53589391708374,3.7734999656677246 -3.7730000019073486,3.813156404806938e-15 -3.7730000019073486,3.813156404806938e-15 C-3.7730000019073486,3.813156404806938e-15 -6.53589391708374,-3.7734999656677246 -6.53589391708374,-3.7734999656677246 C-6.53589391708374,-3.7734999656677246 -1.8865000009536743,-3.2675137519836426 -1.8865000009536743,-3.2675137519836426 C-1.8865000009536743,-3.2675137519836426 4.621204766542977e-16,-7.546999931335449 4.621204766542977e-16,-7.546999931335449z"></path></g></g><g style="display: block;" transform="matrix(-0.9543692469596863,2.4228076934814453,-2.4228076934814453,-0.9543692469596863,56.75148391723633,688.164306640625)" opacity="1"><g opacity="1" transform="matrix(1.090000033378601,0,0,1.090000033378601,0,0)"><path fill="rgb(255,255,255)" fill-opacity="1" d=" M-209.5,-105.25 C-210.25,-105.375 -210.31300354003906,-103.81199645996094 -210.68800354003906,-103.81199645996094 C-211.06300354003906,-103.81199645996094 -211.68699645996094,-103.18699645996094 -211.375,-102.81199645996094 C-211.06300354003906,-102.43699645996094 -210.25,-102 -209.81199645996094,-102.375 C-209.37399291992188,-102.75 -208.81199645996094,-102.3759994506836 -208.5,-102.93800354003906 C-208.18800354003906,-103.5 -208.75,-103.81300354003906 -208.68800354003906,-104.375 C-208.62600708007812,-104.93699645996094 -208.75,-105.125 -209.5,-105.25z"></path></g></g><g style="display: block;" transform="matrix(2.3788726329803467,-1.0591423511505127,1.0591423511505127,2.3788726329803467,883.2001342773438,361.5577087402344)" opacity="1"><g opacity="1" transform="matrix(1.090000033378601,0,0,1.090000033378601,0,0)"><path fill="rgb(255,255,255)" fill-opacity="1" d=" M-209.5919952392578,-104.57599639892578 C-210.3419952392578,-104.70099639892578 -210.81500244140625,-104.45600128173828 -211.0570068359375,-104.16899871826172 C-211.70799255371094,-103.39700317382812 -211.68699645996094,-103.18699645996094 -211.375,-102.81199645996094 C-211.06300354003906,-102.43699645996094 -210.78399658203125,-102.06600189208984 -210.38099670410156,-102.2300033569336 C-209.97799682617188,-102.39399719238281 -209.2220001220703,-102.177001953125 -208.91000366210938,-102.73899841308594 C-208.59800720214844,-103.3010025024414 -208.89500427246094,-103.36399841308594 -208.83299255371094,-103.9260025024414 C-208.8159942626953,-104.24299621582031 -208.8419952392578,-104.45099639892578 -209.5919952392578,-104.57599639892578z"></path></g></g><g style="display: block;" transform="matrix(0.6000000238418579,0,0,0.6000000238418579,275.2632141113281,276.65777587890625)" opacity="1"><g opacity="1" transform="matrix(1,0,0,1,159.09300231933594,-46.43199920654297)"><path fill="rgb(255,255,255)" fill-opacity="1" d=" M0,-4.550000190734863 C2.5111451148986816,-4.550000190734863 4.550000190734863,-2.5111451148986816 4.550000190734863,0 C4.550000190734863,2.5111451148986816 2.5111451148986816,4.550000190734863 0,4.550000190734863 C-2.5111451148986816,4.550000190734863 -4.550000190734863,2.5111451148986816 -4.550000190734863,0 C-4.550000190734863,-2.5111451148986816 -2.5111451148986816,-4.550000190734863 0,-4.550000190734863z"></path></g></g><g style="display: block;" transform="matrix(0.5475092530250549,-0.24542537331581116,0.24542537331581116,0.5475092530250549,474.2102355957031,217.52584838867188)" opacity="1"><g opacity="1" transform="matrix(1,0,0,1,-209.75,-80.25)"><path fill="rgb(112,255,129)" fill-opacity="1" d=" M4.621204766542977e-16,-7.546999931335449 C4.621204766542977e-16,-7.546999931335449 2.2177138328552246,-3.0524210929870605 2.2177138328552246,-3.0524210929870605 C2.2177138328552246,-3.0524210929870605 7.177623748779297,-2.332151174545288 7.177623748779297,-2.332151174545288 C7.177623748779297,-2.332151174545288 3.588336229324341,1.1659210920333862 3.588336229324341,1.1659210920333862 C3.588336229324341,1.1659210920333862 4.4360151290893555,6.105651378631592 4.4360151290893555,6.105651378631592 C4.4360151290893555,6.105651378631592 2.310296127921497e-16,3.7730000019073486 2.310296127921497e-16,3.7730000019073486 C2.310296127921497e-16,3.7730000019073486 -4.4360151290893555,6.105651378631592 -4.4360151290893555,6.105651378631592 C-4.4360151290893555,6.105651378631592 -3.588336229324341,1.1659210920333862 -3.588336229324341,1.1659210920333862 C-3.588336229324341,1.1659210920333862 -7.177623748779297,-2.332151174545288 -7.177623748779297,-2.332151174545288 C-7.177623748779297,-2.332151174545288 -2.2177138328552246,-3.0524210929870605 -2.2177138328552246,-3.0524210929870605 C-2.2177138328552246,-3.0524210929870605 4.621204766542977e-16,-7.546999931335449 4.621204766542977e-16,-7.546999931335449z"></path></g></g><g style="display: block;" transform="matrix(0.43800002336502075,0,0,0.43800002336502075,37.804901123046875,268.14678955078125)" opacity="1"><g opacity="1" transform="matrix(1,0,0,1,226.0279998779297,-88.72200012207031)"><path fill="rgb(112,255,129)" fill-opacity="1" d=" M0,-9.050000190734863 C4.99469518661499,-9.050000190734863 9.050000190734863,-4.99469518661499 9.050000190734863,0 C9.050000190734863,4.99469518661499 4.99469518661499,9.050000190734863 0,9.050000190734863 C-4.99469518661499,9.050000190734863 -9.050000190734863,4.99469518661499 -9.050000190734863,0 C-9.050000190734863,-4.99469518661499 -4.99469518661499,-9.050000190734863 0,-9.050000190734863z"></path></g></g><g style="display: block;" transform="matrix(0.28769662976264954,-0.5265269875526428,0.5265269875526428,0.28769662976264954,288.4311218261719,206.74464416503906)" opacity="1"><g opacity="1" transform="matrix(1.4800000190734863,0,0,1.4800000190734863,-209.75,-80.25)"><path fill="rgb(112,255,129)" fill-opacity="1" d=" M4.621204766542977e-16,-7.546999931335449 C4.621204766542977e-16,-7.546999931335449 1.8865000009536743,-3.2675137519836426 1.8865000009536743,-3.2675137519836426 C1.8865000009536743,-3.2675137519836426 6.53589391708374,-3.7734999656677246 6.53589391708374,-3.7734999656677246 C6.53589391708374,-3.7734999656677246 3.7730000019073486,-8.377742948056596e-16 3.7730000019073486,-8.377742948056596e-16 C3.7730000019073486,-8.377742948056596e-16 6.53589391708374,3.7734999656677246 6.53589391708374,3.7734999656677246 C6.53589391708374,3.7734999656677246 1.8865000009536743,3.2675137519836426 1.8865000009536743,3.2675137519836426 C1.8865000009536743,3.2675137519836426 3.813661659959975e-15,7.546999931335449 3.813661659959975e-15,7.546999931335449 C3.813661659959975e-15,7.546999931335449 -1.8865000009536743,3.2675137519836426 -1.8865000009536743,3.2675137519836426 C-1.8865000009536743,3.2675137519836426 -6.53589391708374,3.7734999656677246 -6.53589391708374,3.7734999656677246 C-6.53589391708374,3.7734999656677246 -3.7730000019073486,3.813156404806938e-15 -3.7730000019073486,3.813156404806938e-15 C-3.7730000019073486,3.813156404806938e-15 -6.53589391708374,-3.7734999656677246 -6.53589391708374,-3.7734999656677246 C-6.53589391708374,-3.7734999656677246 -1.8865000009536743,-3.2675137519836426 -1.8865000009536743,-3.2675137519836426 C-1.8865000009536743,-3.2675137519836426 4.621204766542977e-16,-7.546999931335449 4.621204766542977e-16,-7.546999931335449z"></path></g></g><g style="display: block;" transform="matrix(-0.6083729267120361,0.638597309589386,-0.638597309589386,-0.6083729267120361,245.08242797851562,213.92974853515625)" opacity="1"><g opacity="1" transform="matrix(1,0,0,1,0,0)"><path fill="rgb(255,255,255)" fill-opacity="1" d=" M102.25,-14.5 C101.25,-15 99.5,-11.75 98.5,-10.5 C97.5,-9.25 96,-3.25 96,0.25 C96,3.75 99.25,3.25 101.5,3.5 C103.75,3.75 104.5,8.5 103.75,11 C103,13.5 107.75,10.75 110,7 C110.9280014038086,5.453999996185303 108.5,3.5 108.75,-3 C108.81999969482422,-4.818999767303467 108.25,-6.25 106,-5.25 C103.75,-4.25 102,-1 102.5,-3.25 C103,-5.5 107,-7 106.25,-9.5 C105.5,-12 103.25,-14 102.25,-14.5z"></path></g></g><g style="display: block;" transform="matrix(-0.1150575801730156,0.588864803314209,-0.588864803314209,-0.1150575801730156,425.5105895996094,199.40159606933594)" opacity="1"><g opacity="1" transform="matrix(1,0,0,1,0,0)"><path fill="rgb(255,255,255)" fill-opacity="1" d=" M132,-114 C129.75,-116.25 126,-110.5 124,-107.75 C122,-105 123,-103 120,-95.5 C117,-88 119.25,-86 123,-86.25 C126.75,-86.5 132.25,-92.5 132.5,-96.75 C132.75,-101 134.25,-111.75 132,-114z"></path></g></g><g style="display: block;" transform="matrix(-0.8621060252189636,0.18627221882343292,-0.18627221882343292,-0.8621060252189636,584.5188598632812,257.8550109863281)" opacity="1"><g opacity="1" transform="matrix(1,0,0,1,0,0)"><path fill="rgb(112,255,129)" fill-opacity="1" d=" M102.25,-14.5 C101.25,-15 99.5,-11.75 98.5,-10.5 C97.5,-9.25 96,-3.25 96,0.25 C96,3.75 99.25,3.25 101.5,3.5 C103.75,3.75 104.5,8.5 103.75,11 C103,13.5 107.75,10.75 110,7 C110.9280014038086,5.453999996185303 108.5,3.5 108.75,-3 C108.81999969482422,-4.818999767303467 108.25,-6.25 106,-5.25 C103.75,-4.25 102,-1 102.5,-3.25 C103,-5.5 107,-7 106.25,-9.5 C105.5,-12 103.25,-14 102.25,-14.5z"></path></g></g><g style="display: block;" transform="matrix(-0.06271708011627197,-0.5967131853103638,0.5967131853103638,-0.06271708011627197,491.0781555175781,185.11920166015625)" opacity="1"><g opacity="1" transform="matrix(1,0,0,1,-209.75,-80.25)"><path fill="rgb(255,255,255)" fill-opacity="1" d=" M4.621204766542977e-16,-7.546999931335449 C4.621204766542977e-16,-7.546999931335449 2.2177138328552246,-3.0524210929870605 2.2177138328552246,-3.0524210929870605 C2.2177138328552246,-3.0524210929870605 7.177623748779297,-2.332151174545288 7.177623748779297,-2.332151174545288 C7.177623748779297,-2.332151174545288 3.588336229324341,1.1659210920333862 3.588336229324341,1.1659210920333862 C3.588336229324341,1.1659210920333862 4.4360151290893555,6.105651378631592 4.4360151290893555,6.105651378631592 C4.4360151290893555,6.105651378631592 2.310296127921497e-16,3.7730000019073486 2.310296127921497e-16,3.7730000019073486 C2.310296127921497e-16,3.7730000019073486 -4.4360151290893555,6.105651378631592 -4.4360151290893555,6.105651378631592 C-4.4360151290893555,6.105651378631592 -3.588336229324341,1.1659210920333862 -3.588336229324341,1.1659210920333862 C-3.588336229324341,1.1659210920333862 -7.177623748779297,-2.332151174545288 -7.177623748779297,-2.332151174545288 C-7.177623748779297,-2.332151174545288 -2.2177138328552246,-3.0524210929870605 -2.2177138328552246,-3.0524210929870605 C-2.2177138328552246,-3.0524210929870605 4.621204766542977e-16,-7.546999931335449 4.621204766542977e-16,-7.546999931335449z"></path></g></g><g style="display: block;" transform="matrix(0.6000000238418579,0,0,0.6000000238418579,86.02250671386719,242.2571258544922)" opacity="1"><g opacity="1" transform="matrix(1,0,0,1,159.09300231933594,-46.43199920654297)"><path fill="rgb(255,255,255)" fill-opacity="1" d=" M0,-4.550000190734863 C2.5111451148986816,-4.550000190734863 4.550000190734863,-2.5111451148986816 4.550000190734863,0 C4.550000190734863,2.5111451148986816 2.5111451148986816,4.550000190734863 0,4.550000190734863 C-2.5111451148986816,4.550000190734863 -4.550000190734863,2.5111451148986816 -4.550000190734863,0 C-4.550000190734863,-2.5111451148986816 -2.5111451148986816,-4.550000190734863 0,-4.550000190734863z"></path></g></g><g style="display: block;" transform="matrix(0,-0.6000000238418579,0.6000000238418579,0,504.2547302246094,150.06272888183594)" opacity="1"><g opacity="1" transform="matrix(1,0,0,1,-209.75,-80.25)"><path fill="rgb(255,255,255)" fill-opacity="1" d=" M4.621204766542977e-16,-7.546999931335449 C4.621204766542977e-16,-7.546999931335449 2.2177138328552246,-3.0524210929870605 2.2177138328552246,-3.0524210929870605 C2.2177138328552246,-3.0524210929870605 7.177623748779297,-2.332151174545288 7.177623748779297,-2.332151174545288 C7.177623748779297,-2.332151174545288 3.588336229324341,1.1659210920333862 3.588336229324341,1.1659210920333862 C3.588336229324341,1.1659210920333862 4.4360151290893555,6.105651378631592 4.4360151290893555,6.105651378631592 C4.4360151290893555,6.105651378631592 2.310296127921497e-16,3.7730000019073486 2.310296127921497e-16,3.7730000019073486 C2.310296127921497e-16,3.7730000019073486 -4.4360151290893555,6.105651378631592 -4.4360151290893555,6.105651378631592 C-4.4360151290893555,6.105651378631592 -3.588336229324341,1.1659210920333862 -3.588336229324341,1.1659210920333862 C-3.588336229324341,1.1659210920333862 -7.177623748779297,-2.332151174545288 -7.177623748779297,-2.332151174545288 C-7.177623748779297,-2.332151174545288 -2.2177138328552246,-3.0524210929870605 -2.2177138328552246,-3.0524210929870605 C-2.2177138328552246,-3.0524210929870605 4.621204766542977e-16,-7.546999931335449 4.621204766542977e-16,-7.546999931335449z"></path></g></g><g style="display: none;" transform="matrix(0.9094966053962708,0,0,0.9094966053962708,382.23016357421875,179.74862670898438)" opacity="0.03744285714279684"><g opacity="1" transform="matrix(1,0,0,1,-29.5,37.5)"><path fill="rgb(255,255,255)" fill-opacity="1" d=" M0,-23.106000900268555 C-12.76099967956543,-23.106000900268555 -23.106000900268555,-12.76099967956543 -23.106000900268555,0 C-23.106000900268555,12.76099967956543 -12.76099967956543,23.106000900268555 0,23.106000900268555 C12.76099967956543,23.106000900268555 23.106000900268555,12.76099967956543 23.106000900268555,0 C23.106000900268555,-12.76099967956543 12.76099967956543,-23.106000900268555 0,-23.106000900268555z"></path></g></g><g style="display: none;" transform="matrix(1.1045951843261719,0,0,1.1045951843261719,387.9855651855469,172.5299835205078)" opacity="0.0013583333332172743"><g opacity="1" transform="matrix(1,0,0,1,-29.5,37.5)"><path stroke-linecap="butt" stroke-linejoin="miter" fill-opacity="0" stroke-miterlimit="4" stroke="rgb(255,255,255)" stroke-opacity="1" stroke-width="4" d=" M0,-23.106000900268555 C-12.76099967956543,-23.106000900268555 -23.106000900268555,-12.76099967956543 -23.106000900268555,0 C-23.106000900268555,12.76099967956543 -12.76099967956543,23.106000900268555 0,23.106000900268555 C12.76099967956543,23.106000900268555 23.106000900268555,12.76099967956543 23.106000900268555,0 C23.106000900268555,-12.76099967956543 12.76099967956543,-23.106000900268555 0,-23.106000900268555z"></path></g></g></g></svg>