<svg xmlns="http://www.w3.org/2000/svg" width="60" height="68" fill="none" viewBox="0 0 71 78"><path fill="#0067F5" d="M47.574 17.917c0 6.96-5.61 12.602-12.531 12.602-6.92 0-12.531-5.642-12.531-12.602V13.21h-5.284v4.707c0 9.895 7.976 17.917 17.815 17.917s17.815-8.022 17.815-17.917S44.882 0 35.043 0H16.926v5.314h18.117c6.92 0 12.53 5.643 12.53 12.603"></path><path fill="#CDF2FC" fill-rule="evenodd" d="M55.835 40.16c-1.294 0-2.54.454-3.606 1.189a30.22 30.22 0 0 1-34.292.008c-1.073-.74-2.328-1.196-3.631-1.196-1.396 0-2.76.49-3.755 1.47A35.43 35.43 0 0 0 .003 65.683a5.7 5.7 0 0 0 .44 2.352c.312.764.763 1.47 1.414 1.978 2.773 2.163 11.755 7.506 33.22 7.506 21.466 0 30.447-5.342 33.221-7.506.65-.508 1.102-1.214 1.414-1.978a5.7 5.7 0 0 0 .44-2.352 35.35 35.35 0 0 0-10.599-24.072c-.988-.966-2.336-1.45-3.718-1.45" clip-rule="evenodd"></path></svg>