<svg xmlns="http://www.w3.org/2000/svg" xmlns:xlink="http://www.w3.org/1999/xlink" viewBox="0 0 66 49" width="66" height="49" preserveAspectRatio="xMidYMid meet" style="width: 100%; height: 100%; transform: translate3d(0px, 0px, 0px); content-visibility: visible;"><defs><clipPath id="__lottie_element_2"><rect width="66" height="49" x="0" y="0"></rect></clipPath></defs><g clip-path="url(#__lottie_element_2)"><g id="layer_9" style="display: block;" transform="matrix(1.2726999521255493,0,0,1.2726999521255493,0.500150203704834,17.171199798583984)" opacity="1"><g opacity="1" transform="matrix(1,0,0,1,0,0)"><g opacity="1" transform="matrix(1,0,0,1,0,0)"><path fill="rgb(0,102,244)" fill-opacity="1" d=" M4.889999866485596,9.779999732971191 C7.590000152587891,9.779999732971191 9.779999732971191,7.590000152587891 9.779999732971191,4.889999866485596 C9.779999732971191,2.190000057220459 7.590000152587891,0 4.889999866485596,0 C2.190000057220459,0 0,2.190000057220459 0,4.889999866485596 C0,7.590000152587891 2.190000057220459,9.779999732971191 4.889999866485596,9.779999732971191 C4.889999866485596,9.779999732971191 4.889999866485596,9.779999732971191 4.889999866485596,9.779999732971191z"></path></g></g></g><g id="layer_8" style="display: block;" transform="matrix(1.2726999521255493,0,0,1.2726999521255493,25.500150680541992,16.668041229248047)" opacity="1"><g opacity="1" transform="matrix(1,0,0,1,0,0)"><g opacity="1" transform="matrix(1,0,0,1,0,0)"><g opacity="1" transform="matrix(1,0,0,1,0,0)"><path fill="rgb(0,102,244)" fill-opacity="1" d=" M5.389999866485596,9.779999732971191 C8.09000015258789,9.779999732971191 10.270000457763672,7.590000152587891 10.270000457763672,4.889999866485596 C10.270000457763672,2.190000057220459 8.09000015258789,0 5.389999866485596,0 C2.690000057220459,0 0.5,2.190000057220459 0.5,4.889999866485596 C0.5,7.590000152587891 2.690000057220459,9.779999732971191 5.389999866485596,9.779999732971191 C5.389999866485596,9.779999732971191 5.389999866485596,9.779999732971191 5.389999866485596,9.779999732971191z"></path></g></g></g></g><g id="layer_7" style="display: block;" transform="matrix(1.2726999521255493,0,0,1.2726999521255493,51.50014877319336,13.845403671264648)" opacity="1"><g opacity="1" transform="matrix(1,0,0,1,0,0)"><g opacity="1" transform="matrix(1,0,0,1,0,0)"><g opacity="1" transform="matrix(1,0,0,1,0,0)"><path fill="rgb(0,102,244)" fill-opacity="1" d=" M5.130000114440918,9.779999732971191 C7.829999923706055,9.779999732971191 10.020000457763672,7.590000152587891 10.020000457763672,4.889999866485596 C10.020000457763672,2.190000057220459 7.829999923706055,0 5.130000114440918,0 C2.430000066757202,0 0.23999999463558197,2.190000057220459 0.23999999463558197,4.889999866485596 C0.23999999463558197,7.590000152587891 2.430000066757202,9.779999732971191 5.130000114440918,9.779999732971191 C5.130000114440918,9.779999732971191 5.130000114440918,9.779999732971191 5.130000114440918,9.779999732971191z"></path></g></g></g></g></g></svg>